  0
SECTION
  2
HEADER
  9
$ACADVER
  1
AC1027
  9
$ACADMAINTVER
 70
105
  9
$DWGCODEPAGE
  3
ANSI_1252
  9
$LASTSAVEDBY
  1
ezdxf
  9
$REQUIREDVERSIONS
160
0
  9
$INSBASE
 10
0.0
 20
0.0
 30
0.0
  9
$EXTMIN
 10
1e+20
 20
1e+20
 30
1e+20
  9
$EXTMAX
 10
-1e+20
 20
-1e+20
 30
-1e+20
  9
$LIMMIN
 10
0.0
 20
0.0
  9
$LIMMAX
 10
420.0
 20
297.0
  9
$ORTHOMODE
 70
0
  9
$REGENMODE
 70
1
  9
$FILLMODE
 70
1
  9
$QTEXTMODE
 70
0
  9
$MIRRTEXT
 70
1
  9
$LTSCALE
 40
1.0
  9
$ATTMODE
 70
1
  9
$TEXTSIZE
 40
2.5
  9
$TRACEWID
 40
1.0
  9
$TEXTSTYLE
  7
Standard
  9
$CLAYER
  8
0
  9
$CELTYPE
  6
ByLayer
  9
$CECOLOR
 62
256
  9
$CELTSCALE
 40
1.0
  9
$DISPSILH
 70
0
  9
$DIMSCALE
 40
1.0
  9
$DIMASZ
 40
2.5
  9
$DIMEXO
 40
0.625
  9
$DIMDLI
 40
3.75
  9
$DIMRND
 40
0.0
  9
$DIMDLE
 40
0.0
  9
$DIMEXE
 40
1.25
  9
$DIMTP
 40
0.0
  9
$DIMTM
 40
0.0
  9
$DIMTXT
 40
2.5
  9
$DIMCEN
 40
2.5
  9
$DIMTSZ
 40
0.0
  9
$DIMTOL
 70
0
  9
$DIMLIM
 70
0
  9
$DIMTIH
 70
0
  9
$DIMTOH
 70
0
  9
$DIMSE1
 70
0
  9
$DIMSE2
 70
0
  9
$DIMTAD
 70
1
  9
$DIMZIN
 70
8
  9
$DIMBLK
  1

  9
$DIMASO
 70
1
  9
$DIMSHO
 70
1
  9
$DIMPOST
  1

  9
$DIMAPOST
  1

  9
$DIMALT
 70
0
  9
$DIMALTD
 70
3
  9
$DIMALTF
 40
0.03937007874
  9
$DIMLFAC
 40
1.0
  9
$DIMTOFL
 70
1
  9
$DIMTVP
 40
0.0
  9
$DIMTIX
 70
0
  9
$DIMSOXD
 70
0
  9
$DIMSAH
 70
0
  9
$DIMBLK1
  1

  9
$DIMBLK2
  1

  9
$DIMSTYLE
  2
ISO-25
  9
$DIMCLRD
 70
0
  9
$DIMCLRE
 70
0
  9
$DIMCLRT
 70
0
  9
$DIMTFAC
 40
1.0
  9
$DIMGAP
 40
0.625
  9
$DIMJUST
 70
0
  9
$DIMSD1
 70
0
  9
$DIMSD2
 70
0
  9
$DIMTOLJ
 70
0
  9
$DIMTZIN
 70
8
  9
$DIMALTZ
 70
0
  9
$DIMALTTZ
 70
0
  9
$DIMUPT
 70
0
  9
$DIMDEC
 70
2
  9
$DIMTDEC
 70
2
  9
$DIMALTU
 70
2
  9
$DIMALTTD
 70
3
  9
$DIMTXSTY
  7
Standard
  9
$DIMAUNIT
 70
0
  9
$DIMADEC
 70
0
  9
$DIMALTRND
 40
0.0
  9
$DIMAZIN
 70
0
  9
$DIMDSEP
 70
44
  9
$DIMATFIT
 70
3
  9
$DIMFRAC
 70
0
  9
$DIMLDRBLK
  1

  9
$DIMLUNIT
 70
2
  9
$DIMLWD
 70
-2
  9
$DIMLWE
 70
-2
  9
$DIMTMOVE
 70
0
  9
$DIMFXL
 40
1.0
  9
$DIMFXLON
 70
0
  9
$DIMJOGANG
 40
0.785398163397
  9
$DIMTFILL
 70
0
  9
$DIMTFILLCLR
 70
0
  9
$DIMARCSYM
 70
0
  9
$DIMLTYPE
  6

  9
$DIMLTEX1
  6

  9
$DIMLTEX2
  6

  9
$DIMTXTDIRECTION
 70
0
  9
$LUNITS
 70
2
  9
$LUPREC
 70
4
  9
$SKETCHINC
 40
1.0
  9
$FILLETRAD
 40
10.0
  9
$AUNITS
 70
0
  9
$AUPREC
 70
2
  9
$MENU
  1
.
  9
$ELEVATION
 40
0.0
  9
$PELEVATION
 40
0.0
  9
$THICKNESS
 40
0.0
  9
$LIMCHECK
 70
0
  9
$CHAMFERA
 40
0.0
  9
$CHAMFERB
 40
0.0
  9
$CHAMFERC
 40
0.0
  9
$CHAMFERD
 40
0.0
  9
$SKPOLY
 70
0
  9
$TDCREATE
 40
2461122.869375
  9
$TDUCREATE
 40
2458532.153996898
  9
$TDUPDATE
 40
2461122.8693865743
  9
$TDUUPDATE
 40
2458532.1544311
  9
$TDINDWG
 40
0.0
  9
$TDUSRTIMER
 40
0.0
  9
$USRTIMER
 70
1
  9
$ANGBASE
 50
0.0
  9
$ANGDIR
 70
0
  9
$PDMODE
 70
0
  9
$PDSIZE
 40
0.0
  9
$PLINEWID
 40
0.0
  9
$SPLFRAME
 70
0
  9
$SPLINETYPE
 70
6
  9
$SPLINESEGS
 70
8
  9
$HANDSEED
  5
6E
  9
$SURFTAB1
 70
6
  9
$SURFTAB2
 70
6
  9
$SURFTYPE
 70
6
  9
$SURFU
 70
6
  9
$SURFV
 70
6
  9
$UCSBASE
  2

  9
$UCSNAME
  2

  9
$UCSORG
 10
0.0
 20
0.0
 30
0.0
  9
$UCSXDIR
 10
1.0
 20
0.0
 30
0.0
  9
$UCSYDIR
 10
0.0
 20
1.0
 30
0.0
  9
$UCSORTHOREF
  2

  9
$UCSORTHOVIEW
 70
0
  9
$UCSORGTOP
 10
0.0
 20
0.0
 30
0.0
  9
$UCSORGBOTTOM
 10
0.0
 20
0.0
 30
0.0
  9
$UCSORGLEFT
 10
0.0
 20
0.0
 30
0.0
  9
$UCSORGRIGHT
 10
0.0
 20
0.0
 30
0.0
  9
$UCSORGFRONT
 10
0.0
 20
0.0
 30
0.0
  9
$UCSORGBACK
 10
0.0
 20
0.0
 30
0.0
  9
$PUCSBASE
  2

  9
$PUCSNAME
  2

  9
$PUCSORG
 10
0.0
 20
0.0
 30
0.0
  9
$PUCSXDIR
 10
1.0
 20
0.0
 30
0.0
  9
$PUCSYDIR
 10
0.0
 20
1.0
 30
0.0
  9
$PUCSORTHOREF
  2

  9
$PUCSORTHOVIEW
 70
0
  9
$PUCSORGTOP
 10
0.0
 20
0.0
 30
0.0
  9
$PUCSORGBOTTOM
 10
0.0
 20
0.0
 30
0.0
  9
$PUCSORGLEFT
 10
0.0
 20
0.0
 30
0.0
  9
$PUCSORGRIGHT
 10
0.0
 20
0.0
 30
0.0
  9
$PUCSORGFRONT
 10
0.0
 20
0.0
 30
0.0
  9
$PUCSORGBACK
 10
0.0
 20
0.0
 30
0.0
  9
$USERI1
 70
0
  9
$USERI2
 70
0
  9
$USERI3
 70
0
  9
$USERI4
 70
0
  9
$USERI5
 70
0
  9
$USERR1
 40
0.0
  9
$USERR2
 40
0.0
  9
$USERR3
 40
0.0
  9
$USERR4
 40
0.0
  9
$USERR5
 40
0.0
  9
$WORLDVIEW
 70
1
  9
$SHADEDGE
 70
3
  9
$SHADEDIF
 70
70
  9
$TILEMODE
 70
1
  9
$MAXACTVP
 70
64
  9
$PINSBASE
 10
0.0
 20
0.0
 30
0.0
  9
$PLIMCHECK
 70
0
  9
$PEXTMIN
 10
1e+20
 20
1e+20
 30
1e+20
  9
$PEXTMAX
 10
-1e+20
 20
-1e+20
 30
-1e+20
  9
$PLIMMIN
 10
0.0
 20
0.0
  9
$PLIMMAX
 10
420.0
 20
297.0
  9
$UNITMODE
 70
0
  9
$VISRETAIN
 70
1
  9
$PLINEGEN
 70
0
  9
$PSLTSCALE
 70
1
  9
$TREEDEPTH
 70
3020
  9
$CMLSTYLE
  2
Standard
  9
$CMLJUST
 70
0
  9
$CMLSCALE
 40
20.0
  9
$PROXYGRAPHICS
 70
1
  9
$MEASUREMENT
 70
1
  9
$CELWEIGHT
370
-1
  9
$ENDCAPS
280
0
  9
$JOINSTYLE
280
0
  9
$LWDISPLAY
290
0
  9
$INSUNITS
 70
6
  9
$HYPERLINKBASE
  1

  9
$STYLESHEET
  1

  9
$XEDIT
290
1
  9
$CEPSNTYPE
380
0
  9
$PSTYLEMODE
290
1
  9
$FINGERPRINTGUID
  2
{C3D683DB-0DC2-451C-A6FA-F21DCC4E4D84}
  9
$VERSIONGUID
  2
{66FCC9F7-596E-486D-9BEF-E871176DADDB}
  9
$EXTNAMES
290
1
  9
$PSVPSCALE
 40
0.0
  9
$OLESTARTUP
290
0
  9
$SORTENTS
280
127
  9
$INDEXCTL
280
0
  9
$HIDETEXT
280
1
  9
$XCLIPFRAME
280
1
  9
$HALOGAP
280
0
  9
$OBSCOLOR
 70
257
  9
$OBSLTYPE
280
0
  9
$INTERSECTIONDISPLAY
280
0
  9
$INTERSECTIONCOLOR
 70
257
  9
$DIMASSOC
280
2
  9
$PROJECTNAME
  1

  9
$CAMERADISPLAY
290
0
  9
$LENSLENGTH
 40
50.0
  9
$CAMERAHEIGHT
 40
0.0
  9
$STEPSPERSEC
 40
24.0
  9
$STEPSIZE
 40
100.0
  9
$3DDWFPREC
 40
2.0
  9
$PSOLWIDTH
 40
0.005
  9
$PSOLHEIGHT
 40
0.08
  9
$LOFTANG1
 40
1.570796326795
  9
$LOFTANG2
 40
1.570796326795
  9
$LOFTMAG1
 40
0.0
  9
$LOFTMAG2
 40
0.0
  9
$LOFTPARAM
 70
7
  9
$LOFTNORMALS
280
1
  9
$LATITUDE
 40
37.795
  9
$LONGITUDE
 40
-122.394
  9
$NORTHDIRECTION
 40
0.0
  9
$TIMEZONE
 70
-8000
  9
$LIGHTGLYPHDISPLAY
280
1
  9
$TILEMODELIGHTSYNCH
280
1
  9
$CMATERIAL
347
20
  9
$SOLIDHIST
280
0
  9
$SHOWHIST
280
1
  9
$DWFFRAME
280
2
  9
$DGNFRAME
280
2
  9
$REALWORLDSCALE
290
1
  9
$INTERFERECOLOR
 62
256
  9
$CSHADOW
280
0
  9
$SHADOWPLANELOCATION
 40
0.0
  0
ENDSEC
  0
SECTION
  2
CLASSES
  0
CLASS
  1
ACDBDICTIONARYWDFLT
  2
AcDbDictionaryWithDefault
  3
ObjectDBX Classes
 90
0
 91
0
280
0
281
0
  0
CLASS
  1
SUN
  2
AcDbSun
  3
SCENEOE
 90
1153
 91
0
280
0
281
0
  0
CLASS
  1
VISUALSTYLE
  2
AcDbVisualStyle
  3
ObjectDBX Classes
 90
4095
 91
0
280
0
281
0
  0
CLASS
  1
MATERIAL
  2
AcDbMaterial
  3
ObjectDBX Classes
 90
1153
 91
0
280
0
281
0
  0
CLASS
  1
SCALE
  2
AcDbScale
  3
ObjectDBX Classes
 90
1153
 91
0
280
0
281
0
  0
CLASS
  1
TABLESTYLE
  2
AcDbTableStyle
  3
ObjectDBX Classes
 90
4095
 91
0
280
0
281
0
  0
CLASS
  1
MLEADERSTYLE
  2
AcDbMLeaderStyle
  3
ACDB_MLEADERSTYLE_CLASS
 90
4095
 91
0
280
0
281
0
  0
CLASS
  1
DICTIONARYVAR
  2
AcDbDictionaryVar
  3
ObjectDBX Classes
 90
0
 91
0
280
0
281
0
  0
CLASS
  1
CELLSTYLEMAP
  2
AcDbCellStyleMap
  3
ObjectDBX Classes
 90
1152
 91
0
280
0
281
0
  0
CLASS
  1
MENTALRAYRENDERSETTINGS
  2
AcDbMentalRayRenderSettings
  3
SCENEOE
 90
1024
 91
0
280
0
281
0
  0
CLASS
  1
ACDBDETAILVIEWSTYLE
  2
AcDbDetailViewStyle
  3
ObjectDBX Classes
 90
1025
 91
0
280
0
281
0
  0
CLASS
  1
ACDBSECTIONVIEWSTYLE
  2
AcDbSectionViewStyle
  3
ObjectDBX Classes
 90
1025
 91
0
280
0
281
0
  0
CLASS
  1
RASTERVARIABLES
  2
AcDbRasterVariables
  3
ISM
 90
0
 91
0
280
0
281
0
  0
CLASS
  1
LAYOUT
  2
AcDbLayout
  3
ObjectDBX Classes
 90
0
 91
0
280
0
281
0
  0
CLASS
  1
ACDBPLACEHOLDER
  2
AcDbPlaceHolder
  3
ObjectDBX Classes
 90
0
 91
0
280
0
281
0
  0
ENDSEC
  0
SECTION
  2
TABLES
  0
TABLE
  2
VPORT
  5
8
330
0
100
AcDbSymbolTable
 70
1
  0
VPORT
  5
23
330
8
100
AcDbSymbolTableRecord
100
AcDbViewportTableRecord
  2
*Active
 70
0
 10
0.0
 20
0.0
 11
1.0
 21
1.0
 12
0.0
 22
0.0
 13
0.0
 23
0.0
 14
0.5
 24
0.5
 15
0.5
 25
0.5
 16
0.0
 26
0.0
 36
1.0
 17
0.0
 27
0.0
 37
0.0
 40
1000.0
 41
1.34
 42
50.0
 43
0.0
 44
0.0
 50
0.0
 51
0.0
 71
0
 72
1000
 73
1
 74
3
 75
0
 76
0
 77
0
 78
0
281
0
 65
0
146
0.0
  0
ENDTAB
  0
TABLE
  2
LTYPE
  5
2
330
0
100
AcDbSymbolTable
 70
3
  0
LTYPE
  5
24
330
2
100
AcDbSymbolTableRecord
100
AcDbLinetypeTableRecord
  2
ByBlock
 70
0
  3

 72
65
 73
0
 40
0.0
  0
LTYPE
  5
25
330
2
100
AcDbSymbolTableRecord
100
AcDbLinetypeTableRecord
  2
ByLayer
 70
0
  3

 72
65
 73
0
 40
0.0
  0
LTYPE
  5
26
330
2
100
AcDbSymbolTableRecord
100
AcDbLinetypeTableRecord
  2
Continuous
 70
0
  3

 72
65
 73
0
 40
0.0
  0
ENDTAB
  0
TABLE
  2
LAYER
  5
1
330
0
100
AcDbSymbolTable
 70
2
  0
LAYER
  5
27
330
1
100
AcDbSymbolTableRecord
100
AcDbLayerTableRecord
  2
0
 70
0
 62
7
  6
Continuous
370
-3
390
13
347
21
  0
LAYER
  5
28
330
1
100
AcDbSymbolTableRecord
100
AcDbLayerTableRecord
  2
Defpoints
 70
0
 62
7
  6
Continuous
290
0
370
-3
390
13
347
21
  0
ENDTAB
  0
TABLE
  2
STYLE
  5
5
330
0
100
AcDbSymbolTable
 70
1
  0
STYLE
  5
29
330
5
100
AcDbSymbolTableRecord
100
AcDbTextStyleTableRecord
  2
Standard
 70
0
 40
0.0
 41
1.0
 50
0.0
 71
0
 42
2.5
  3
txt
  4

  0
ENDTAB
  0
TABLE
  2
VIEW
  5
7
330
0
100
AcDbSymbolTable
 70
0
  0
ENDTAB
  0
TABLE
  2
UCS
  5
6
330
0
100
AcDbSymbolTable
 70
0
  0
ENDTAB
  0
TABLE
  2
APPID
  5
3
330
0
100
AcDbSymbolTable
 70
3
  0
APPID
  5
2A
330
3
100
AcDbSymbolTableRecord
100
AcDbRegAppTableRecord
  2
ACAD
 70
0
  0
APPID
  5
6B
330
3
100
AcDbSymbolTableRecord
100
AcDbRegAppTableRecord
  2
HATCHBACKGROUNDCOLOR
 70
0
  0
APPID
  5
6C
330
3
100
AcDbSymbolTableRecord
100
AcDbRegAppTableRecord
  2
EZDXF
 70
0
  0
ENDTAB
  0
TABLE
  2
DIMSTYLE
  5
4
330
0
100
AcDbSymbolTable
 70
1
100
AcDbDimStyleTable
  0
DIMSTYLE
105
2B
330
4
100
AcDbSymbolTableRecord
100
AcDbDimStyleTableRecord
  2
Standard
 70
0
 40
1.0
 41
2.5
 42
0.625
 43
3.75
 44
1.25
 45
0.0
 46
0.0
 47
0.0
 48
0.0
 49
2.5
140
2.5
141
2.5
142
0.0
143
0.03937007874
144
1.0
145
0.0
146
1.0
147
0.625
148
0.0
 69
0
 70
0
 71
0
 72
0
 73
0
 74
0
 75
0
 76
0
 77
1
 78
8
 79
3
170
0
171
3
172
1
173
0
174
0
175
0
176
0
177
0
178
0
179
2
271
2
272
2
273
2
274
3
275
0
276
0
277
2
278
44
279
0
280
0
281
0
282
0
283
0
284
8
285
0
286
0
288
0
289
3
290
0
371
-2
372
-2
  0
ENDTAB
  0
TABLE
  2
BLOCK_RECORD
  5
9
330
0
100
AcDbSymbolTable
 70
2
  0
BLOCK_RECORD
  5
17
330
9
100
AcDbSymbolTableRecord
100
AcDbBlockTableRecord
  2
*Model_Space
340
1A
 70
0
280
1
281
0
  0
BLOCK_RECORD
  5
1B
330
9
100
AcDbSymbolTableRecord
100
AcDbBlockTableRecord
  2
*Paper_Space
340
1E
 70
0
280
1
281
0
  0
ENDTAB
  0
ENDSEC
  0
SECTION
  2
BLOCKS
  0
BLOCK
  5
18
330
17
100
AcDbEntity
  8
0
100
AcDbBlockBegin
  2
*Model_Space
 70
0
 10
0.0
 20
0.0
 30
0.0
  3
*Model_Space
  1

  0
ENDBLK
  5
19
330
17
100
AcDbEntity
  8
0
100
AcDbBlockEnd
  0
BLOCK
  5
1C
330
1B
100
AcDbEntity
  8
0
100
AcDbBlockBegin
  2
*Paper_Space
 70
0
 10
0.0
 20
0.0
 30
0.0
  3
*Paper_Space
  1

  0
ENDBLK
  5
1D
330
1B
100
AcDbEntity
  8
0
100
AcDbBlockEnd
  0
ENDSEC
  0
SECTION
  2
ENTITIES
  0
HATCH
  5
2F
330
17
100
AcDbEntity
  8
加固措施
 62
7
370
-2
100
AcDbHatch
 10
0.0
 20
0.0
 30
0.0
210
0.0
220
0.0
230
1.0
  2
DOTS
 70
0
 71
0
 91
1
 92
5
 93
1
 72
4
 94
3
 73
0
 74
0
 95
13
 96
9
 40
0.0
 40
0.0
 40
0.0
 40
0.0
 40
5.205470949238192
 40
7.397577115618391
 40
12.94479593938928
 40
16.16992297717394
 40
23.88441044916003
 40
24.40043173154758
 40
24.40043173154758
 40
24.40043173154758
 40
24.40043173154758
 10
30.136925706926633
 20
249.3554972184014
 10
29.393169159549217
 20
248.84456760216233
 10
28.3362049639575
 20
248.1184774417119
 10
28.217251874658615
 20
245.4292953714861
 10
30.717219579829617
 20
246.6645855843384
 10
34.11110848772958
 20
245.69747282581318
 10
31.58462195522887
 20
249.41609982039097
 10
30.222335814868785
 20
249.35907260570218
 10
30.136925706926633
 20
249.3554972184014
 97
0
 97
0
 75
1
 76
1
 52
0.0
 41
0.5000000000000001
 77
0
 78
1
 53
0.0
 43
-1509.9045751446
 44
-114.7962191375
 45
0.1984375
 46
0.396875
 79
2
 49
0.0
 49
-0.396875
 47
0.0249828096589368
 98
1
 10
2.489201724020205
 20
1.709159144376837
1001
GradientColor1ACI
1070
5
1001
GradientColor2ACI
1070
2
1001
ACAD
1010
0.0
1020
0.0
1030
0.0
  0
SPLINE
  5
30
330
17
100
AcDbEntity
  8
0
370
-2
100
AcDbSpline
 70
1065
 71
3
 72
13
 73
9
 74
7
 42
1e-09
 40
0.0
 40
0.0
 40
0.0
 40
0.0
 40
2.6027354746146
 40
3.698788557806291
 40
6.472397969687189
 40
8.084961488574518
 40
11.94220522456679
 40
12.2002158657583
 40
12.2002158657583
 40
12.2002158657583
 40
12.2002158657583
 10
30.136925706926633
 20
249.3554972184014
 30
0.0
 10
29.39316915956013
 20
248.84456760216415
 30
0.0
 10
28.33620496397205
 20
248.1184774417119
 30
0.0
 10
28.217251874662253
 20
245.42929537149064
 30
0.0
 10
30.717219579833255
 20
246.66458558434567
 30
0.0
 10
34.11110848772958
 20
245.69747282581318
 30
0.0
 10
31.58462195524342
 20
249.41609982038915
 30
0.0
 10
30.222335814872423
 20
249.35907260569945
 30
0.0
 10
30.136925706926633
 20
249.3554972184014
 30
0.0
 11
30.136925706926633
 21
249.3554972184014
 31
0.0
 11
28.395357265918648
 21
247.42128644495858
 31
0.0
 11
28.395357265918648
 21
246.3252333617669
 31
0.0
 11
31.168966677799546
 21
246.3252333617669
 31
0.0
 11
32.78153019668687
 21
246.3252333617669
 31
0.0
 11
30.394936348118136
 21
249.3554972184014
 31
0.0
 11
30.136925706926633
 21
249.3554972184014
 31
0.0
  0
HATCH
  5
31
330
17
100
AcDbEntity
  8
病害
 62
4
370
-2
100
AcDbHatch
 10
0.0
 20
0.0
 30
0.0
210
0.0
220
0.0
230
1.0
  2
DOTS
 70
0
 71
0
 91
1
 92
5
 93
1
 72
4
 94
3
 73
0
 74
0
 95
13
 96
9
 40
0.0
 40
0.0
 40
0.0
 40
0.0
 40
1.041094189847545
 40
1.479515423123562
 40
2.588959187877695
 40
3.233984595434581
 40
4.776882089831686
 40
4.880086346309197
 40
4.880086346309197
 40
4.880086346309197
 40
4.880086346309197
 10
30.136925706926633
 20
249.3554972184014
 10
29.393169159549217
 20
248.84456760216233
 10
28.3362049639575
 20
248.1184774417119
 10
28.217251874658615
 20
245.4292953714861
 10
30.717219579829617
 20
246.6645855843475
 10
34.11110848772958
 20
245.69747282581318
 10
31.584621955236145
 20
249.41609982039097
 10
30.222335814868785
 20
249.35907260570218
 10
30.136925706926633
 20
249.3554972184014
 97
0
 97
0
 75
0
 76
1
 52
0.0
 41
0.5000000000000001
 77
0
 78
1
 53
0.0
 43
-2547.1613147426
 44
-262.6486975422
 45
0.1984375
 46
0.396875
 79
2
 49
0.0
 49
-0.396875
 47
0.0042562095306287
 98
1
 10
2.951603431360383
 20
1.607248614912361
1001
ACAD
1010
0.0
1020
0.0
1030
0.0
  0
HATCH
  5
32
330
17
100
AcDbEntity
  8
加固措施
 62
7
370
-2
100
AcDbHatch
 10
0.0
 20
0.0
 30
0.0
210
0.0
220
0.0
230
1.0
  2
DOTS
 70
0
 71
0
 91
1
 92
5
 93
1
 72
4
 94
3
 73
0
 74
0
 95
13
 96
9
 40
0.0
 40
0.0
 40
0.0
 40
0.0
 40
5.205470949238192
 40
7.397577115618391
 40
12.94479593938928
 40
16.16992297717394
 40
23.88441044916003
 40
24.40043173154758
 40
24.40043173154758
 40
24.40043173154758
 40
24.40043173154758
 10
30.136925706926633
 20
249.3554972184014
 10
29.393169159549217
 20
248.84456760216233
 10
28.3362049639575
 20
248.1184774417119
 10
28.217251874658615
 20
245.4292953714861
 10
30.717219579829617
 20
246.6645855843384
 10
34.11110848772958
 20
245.69747282581318
 10
31.58462195522887
 20
249.41609982039097
 10
30.222335814868785
 20
249.35907260570218
 10
30.136925706926633
 20
249.3554972184014
 97
0
 97
0
 75
1
 76
1
 52
0.0
 41
0.5000000000000001
 77
0
 78
1
 53
0.0
 43
-1509.9045751446
 44
-114.7962191375
 45
0.1984375
 46
0.396875
 79
2
 49
0.0
 49
-0.396875
 47
0.0249828096589368
 98
1
 10
2.489201724020205
 20
1.709159144376837
1001
GradientColor1ACI
1070
5
1001
GradientColor2ACI
1070
2
1001
ACAD
1010
0.0
1020
0.0
1030
0.0
  0
SPLINE
  5
33
330
17
100
AcDbEntity
  8
0
370
-2
100
AcDbSpline
 70
1065
 71
3
 72
13
 73
9
 74
7
 42
1e-09
 40
0.0
 40
0.0
 40
0.0
 40
0.0
 40
2.6027354746146
 40
3.698788557806291
 40
6.472397969687189
 40
8.084961488574518
 40
11.94220522456679
 40
12.2002158657583
 40
12.2002158657583
 40
12.2002158657583
 40
12.2002158657583
 10
30.136925706926633
 20
249.3554972184014
 30
0.0
 10
29.39316915956013
 20
248.84456760216415
 30
0.0
 10
28.33620496397205
 20
248.1184774417119
 30
0.0
 10
28.217251874662253
 20
245.42929537149064
 30
0.0
 10
30.717219579833255
 20
246.66458558434567
 30
0.0
 10
34.11110848772958
 20
245.69747282581318
 30
0.0
 10
31.58462195524342
 20
249.41609982038915
 30
0.0
 10
30.222335814872423
 20
249.35907260569945
 30
0.0
 10
30.136925706926633
 20
249.3554972184014
 30
0.0
 11
30.136925706926633
 21
249.3554972184014
 31
0.0
 11
28.395357265918648
 21
247.42128644495858
 31
0.0
 11
28.395357265918648
 21
246.3252333617669
 31
0.0
 11
31.168966677799546
 21
246.3252333617669
 31
0.0
 11
32.78153019668687
 21
246.3252333617669
 31
0.0
 11
30.394936348118136
 21
249.3554972184014
 31
0.0
 11
30.136925706926633
 21
249.3554972184014
 31
0.0
  0
HATCH
  5
34
330
17
100
AcDbEntity
  8
病害
 62
4
370
-2
100
AcDbHatch
 10
0.0
 20
0.0
 30
0.0
210
0.0
220
0.0
230
1.0
  2
DOTS
 70
0
 71
0
 91
1
 92
5
 93
1
 72
4
 94
3
 73
0
 74
0
 95
13
 96
9
 40
0.0
 40
0.0
 40
0.0
 40
0.0
 40
1.041094189847545
 40
1.479515423123562
 40
2.588959187877695
 40
3.233984595434581
 40
4.776882089831686
 40
4.880086346309197
 40
4.880086346309197
 40
4.880086346309197
 40
4.880086346309197
 10
30.136925706926633
 20
249.3554972184014
 10
29.393169159549217
 20
248.84456760216233
 10
28.3362049639575
 20
248.1184774417119
 10
28.217251874658615
 20
245.4292953714861
 10
30.717219579829617
 20
246.6645855843475
 10
34.11110848772958
 20
245.69747282581318
 10
31.584621955236145
 20
249.41609982039097
 10
30.222335814868785
 20
249.35907260570218
 10
30.136925706926633
 20
249.3554972184014
 97
0
 97
0
 75
0
 76
1
 52
0.0
 41
0.5000000000000001
 77
0
 78
1
 53
0.0
 43
-2547.1613147426
 44
-262.6486975422
 45
0.1984375
 46
0.396875
 79
2
 49
0.0
 49
-0.396875
 47
0.0042562095306287
 98
1
 10
2.951603431360383
 20
1.607248614912361
1001
ACAD
1010
0.0
1020
0.0
1030
0.0
  0
HATCH
  5
35
330
17
100
AcDbEntity
  8
加固措施
 62
7
370
-2
100
AcDbHatch
 10
0.0
 20
0.0
 30
0.0
210
0.0
220
0.0
230
1.0
  2
DOTS
 70
0
 71
0
 91
1
 92
5
 93
1
 72
4
 94
3
 73
0
 74
0
 95
13
 96
9
 40
0.0
 40
0.0
 40
0.0
 40
0.0
 40
5.205470949238192
 40
7.397577115618391
 40
12.94479593938928
 40
16.16992297717394
 40
23.88441044916003
 40
24.40043173154758
 40
24.40043173154758
 40
24.40043173154758
 40
24.40043173154758
 10
52.620230139223644
 20
249.3554972184014
 10
51.87647359184623
 20
248.84456760216233
 10
50.81950939625451
 20
248.1184774417119
 10
50.700556306955626
 20
245.4292953714861
 10
53.20052401212663
 20
246.6645855843384
 10
56.59441292002659
 20
245.69747282581318
 10
54.06792638752588
 20
249.41609982039097
 10
52.705640247165796
 20
249.35907260570218
 10
52.620230139223644
 20
249.3554972184014
 97
0
 97
0
 75
1
 76
1
 52
0.0
 41
0.5000000000000001
 77
0
 78
1
 53
0.0
 43
-1509.9045751446
 44
-114.7962191375
 45
0.1984375
 46
0.396875
 79
2
 49
0.0
 49
-0.396875
 47
0.0249828096589368
 98
1
 10
2.489201724020205
 20
1.709159144376837
1001
GradientColor1ACI
1070
5
1001
GradientColor2ACI
1070
2
1001
ACAD
1010
0.0
1020
0.0
1030
0.0
  0
SPLINE
  5
36
330
17
100
AcDbEntity
  8
0
370
-2
100
AcDbSpline
 70
1065
 71
3
 72
13
 73
9
 74
7
 42
1e-09
 40
0.0
 40
0.0
 40
0.0
 40
0.0
 40
2.6027354746146
 40
3.698788557806291
 40
6.472397969687189
 40
8.084961488574518
 40
11.94220522456679
 40
12.2002158657583
 40
12.2002158657583
 40
12.2002158657583
 40
12.2002158657583
 10
52.620230139223644
 20
249.3554972184014
 30
0.0
 10
51.87647359185714
 20
248.84456760216415
 30
0.0
 10
50.81950939626906
 20
248.1184774417119
 30
0.0
 10
50.700556306959264
 20
245.42929537149064
 30
0.0
 10
53.200524012130266
 20
246.66458558434567
 30
0.0
 10
56.59441292002659
 20
245.69747282581318
 30
0.0
 10
54.06792638754043
 20
249.41609982038915
 30
0.0
 10
52.705640247169434
 20
249.35907260569945
 30
0.0
 10
52.620230139223644
 20
249.3554972184014
 30
0.0
 11
52.620230139223644
 21
249.3554972184014
 31
0.0
 11
50.87866169821566
 21
247.42128644495858
 31
0.0
 11
50.87866169821566
 21
246.3252333617669
 31
0.0
 11
53.65227111009656
 21
246.3252333617669
 31
0.0
 11
55.264834628983884
 21
246.3252333617669
 31
0.0
 11
52.87824078041515
 21
249.3554972184014
 31
0.0
 11
52.620230139223644
 21
249.3554972184014
 31
0.0
  0
HATCH
  5
37
330
17
100
AcDbEntity
  8
病害
 62
4
370
-2
100
AcDbHatch
 10
0.0
 20
0.0
 30
0.0
210
0.0
220
0.0
230
1.0
  2
DOTS
 70
0
 71
0
 91
1
 92
5
 93
1
 72
4
 94
3
 73
0
 74
0
 95
13
 96
9
 40
0.0
 40
0.0
 40
0.0
 40
0.0
 40
1.041094189847545
 40
1.479515423123562
 40
2.588959187877695
 40
3.233984595434581
 40
4.776882089831686
 40
4.880086346309197
 40
4.880086346309197
 40
4.880086346309197
 40
4.880086346309197
 10
52.620230139223644
 20
249.3554972184014
 10
51.87647359184623
 20
248.84456760216233
 10
50.81950939625451
 20
248.1184774417119
 10
50.700556306955626
 20
245.4292953714861
 10
53.20052401212663
 20
246.6645855843475
 10
56.59441292002659
 20
245.69747282581318
 10
54.067926387533156
 20
249.41609982039097
 10
52.705640247165796
 20
249.35907260570218
 10
52.620230139223644
 20
249.3554972184014
 97
0
 97
0
 75
0
 76
1
 52
0.0
 41
0.5000000000000001
 77
0
 78
1
 53
0.0
 43
-2547.1613147426
 44
-262.6486975422
 45
0.1984375
 46
0.396875
 79
2
 49
0.0
 49
-0.396875
 47
0.0042562095306287
 98
1
 10
2.951603431360383
 20
1.607248614912361
1001
ACAD
1010
0.0
1020
0.0
1030
0.0
  0
HATCH
  5
38
330
17
100
AcDbEntity
  8
加固措施
 62
7
370
-2
100
AcDbHatch
 10
0.0
 20
0.0
 30
0.0
210
0.0
220
0.0
230
1.0
  2
DOTS
 70
0
 71
0
 91
1
 92
5
 93
1
 72
4
 94
3
 73
0
 74
0
 95
13
 96
9
 40
0.0
 40
0.0
 40
0.0
 40
0.0
 40
5.205470949238192
 40
7.397577115618391
 40
12.94479593938928
 40
16.16992297717394
 40
23.88441044916003
 40
24.40043173154758
 40
24.40043173154758
 40
24.40043173154758
 40
24.40043173154758
 10
52.620230139223644
 20
249.3554972184014
 10
51.87647359184623
 20
248.84456760216233
 10
50.81950939625451
 20
248.1184774417119
 10
50.700556306955626
 20
245.4292953714861
 10
53.20052401212663
 20
246.6645855843384
 10
56.59441292002659
 20
245.69747282581318
 10
54.06792638752588
 20
249.41609982039097
 10
52.705640247165796
 20
249.35907260570218
 10
52.620230139223644
 20
249.3554972184014
 97
0
 97
0
 75
1
 76
1
 52
0.0
 41
0.5000000000000001
 77
0
 78
1
 53
0.0
 43
-1509.9045751446
 44
-114.7962191375
 45
0.1984375
 46
0.396875
 79
2
 49
0.0
 49
-0.396875
 47
0.0249828096589368
 98
1
 10
2.489201724020205
 20
1.709159144376837
1001
GradientColor1ACI
1070
5
1001
GradientColor2ACI
1070
2
1001
ACAD
1010
0.0
1020
0.0
1030
0.0
  0
SPLINE
  5
39
330
17
100
AcDbEntity
  8
0
370
-2
100
AcDbSpline
 70
1065
 71
3
 72
13
 73
9
 74
7
 42
1e-09
 40
0.0
 40
0.0
 40
0.0
 40
0.0
 40
2.6027354746146
 40
3.698788557806291
 40
6.472397969687189
 40
8.084961488574518
 40
11.94220522456679
 40
12.2002158657583
 40
12.2002158657583
 40
12.2002158657583
 40
12.2002158657583
 10
52.620230139223644
 20
249.3554972184014
 30
0.0
 10
51.87647359185714
 20
248.84456760216415
 30
0.0
 10
50.81950939626906
 20
248.1184774417119
 30
0.0
 10
50.700556306959264
 20
245.42929537149064
 30
0.0
 10
53.200524012130266
 20
246.66458558434567
 30
0.0
 10
56.59441292002659
 20
245.69747282581318
 30
0.0
 10
54.06792638754043
 20
249.41609982038915
 30
0.0
 10
52.705640247169434
 20
249.35907260569945
 30
0.0
 10
52.620230139223644
 20
249.3554972184014
 30
0.0
 11
52.620230139223644
 21
249.3554972184014
 31
0.0
 11
50.87866169821566
 21
247.42128644495858
 31
0.0
 11
50.87866169821566
 21
246.3252333617669
 31
0.0
 11
53.65227111009656
 21
246.3252333617669
 31
0.0
 11
55.264834628983884
 21
246.3252333617669
 31
0.0
 11
52.87824078041515
 21
249.3554972184014
 31
0.0
 11
52.620230139223644
 21
249.3554972184014
 31
0.0
  0
HATCH
  5
3A
330
17
100
AcDbEntity
  8
病害
 62
4
370
-2
100
AcDbHatch
 10
0.0
 20
0.0
 30
0.0
210
0.0
220
0.0
230
1.0
  2
DOTS
 70
0
 71
0
 91
1
 92
5
 93
1
 72
4
 94
3
 73
0
 74
0
 95
13
 96
9
 40
0.0
 40
0.0
 40
0.0
 40
0.0
 40
1.041094189847545
 40
1.479515423123562
 40
2.588959187877695
 40
3.233984595434581
 40
4.776882089831686
 40
4.880086346309197
 40
4.880086346309197
 40
4.880086346309197
 40
4.880086346309197
 10
52.620230139223644
 20
249.3554972184014
 10
51.87647359184623
 20
248.84456760216233
 10
50.81950939625451
 20
248.1184774417119
 10
50.700556306955626
 20
245.4292953714861
 10
53.20052401212663
 20
246.6645855843475
 10
56.59441292002659
 20
245.69747282581318
 10
54.067926387533156
 20
249.41609982039097
 10
52.705640247165796
 20
249.35907260570218
 10
52.620230139223644
 20
249.3554972184014
 97
0
 97
0
 75
0
 76
1
 52
0.0
 41
0.5000000000000001
 77
0
 78
1
 53
0.0
 43
-2547.1613147426
 44
-262.6486975422
 45
0.1984375
 46
0.396875
 79
2
 49
0.0
 49
-0.396875
 47
0.0042562095306287
 98
1
 10
2.951603431360383
 20
1.607248614912361
1001
ACAD
1010
0.0
1020
0.0
1030
0.0
  0
HATCH
  5
3B
330
17
100
AcDbEntity
  8
加固措施
 62
7
370
-2
100
AcDbHatch
 10
0.0
 20
0.0
 30
0.0
210
0.0
220
0.0
230
1.0
  2
DOTS
 70
0
 71
0
 91
1
 92
5
 93
1
 72
4
 94
3
 73
0
 74
0
 95
13
 96
9
 40
0.0
 40
0.0
 40
0.0
 40
0.0
 40
5.205470949238192
 40
7.397577115618391
 40
12.94479593938928
 40
16.16992297717394
 40
23.88441044916003
 40
24.40043173154758
 40
24.40043173154758
 40
24.40043173154758
 40
24.40043173154758
 10
30.136925706926633
 20
252.66031007842233
 10
29.393169159549217
 20
252.14938046218325
 10
28.3362049639575
 20
251.4232903017328
 10
28.217251874658615
 20
248.734108231507
 10
30.717219579829617
 20
249.9693984443593
 10
34.11110848772958
 20
249.0022856858341
 10
31.58462195522887
 20
252.72091268041189
 10
30.222335814868785
 20
252.6638854657231
 10
30.136925706926633
 20
252.66031007842233
 97
0
 97
0
 75
1
 76
1
 52
0.0
 41
0.5000000000000001
 77
0
 78
1
 53
0.0
 43
-1509.9045751446
 44
-114.7962191375
 45
0.1984375
 46
0.396875
 79
2
 49
0.0
 49
-0.396875
 47
0.0249828096589368
 98
1
 10
2.489201724020205
 20
1.709159144376837
1001
GradientColor1ACI
1070
5
1001
GradientColor2ACI
1070
2
1001
ACAD
1010
0.0
1020
0.0
1030
0.0
  0
SPLINE
  5
3C
330
17
100
AcDbEntity
  8
0
370
-2
100
AcDbSpline
 70
1065
 71
3
 72
13
 73
9
 74
7
 42
1e-09
 40
0.0
 40
0.0
 40
0.0
 40
0.0
 40
2.6027354746146
 40
3.698788557806291
 40
6.472397969687189
 40
8.084961488574518
 40
11.94220522456679
 40
12.2002158657583
 40
12.2002158657583
 40
12.2002158657583
 40
12.2002158657583
 10
30.136925706926633
 20
252.66031007842233
 30
0.0
 10
29.39316915956013
 20
252.14938046218506
 30
0.0
 10
28.33620496397205
 20
251.4232903017328
 30
0.0
 10
28.217251874662253
 20
248.73410823151156
 30
0.0
 10
30.717219579833255
 20
249.9693984443666
 30
0.0
 10
34.11110848772958
 20
249.0022856858341
 30
0.0
 10
31.58462195524342
 20
252.72091268041007
 30
0.0
 10
30.222335814872423
 20
252.66388546572037
 30
0.0
 10
30.136925706926633
 20
252.66031007842233
 30
0.0
 11
30.136925706926633
 21
252.66031007842233
 31
0.0
 11
28.395357265918648
 21
250.7260993049795
 31
0.0
 11
28.395357265918648
 21
249.6300462217878
 31
0.0
 11
31.168966677799546
 21
249.6300462217878
 31
0.0
 11
32.78153019668687
 21
249.6300462217878
 31
0.0
 11
30.394936348118136
 21
252.66031007842233
 31
0.0
 11
30.136925706926633
 21
252.66031007842233
 31
0.0
  0
HATCH
  5
3D
330
17
100
AcDbEntity
  8
病害
 62
4
370
-2
100
AcDbHatch
 10
0.0
 20
0.0
 30
0.0
210
0.0
220
0.0
230
1.0
  2
DOTS
 70
0
 71
0
 91
1
 92
5
 93
1
 72
4
 94
3
 73
0
 74
0
 95
13
 96
9
 40
0.0
 40
0.0
 40
0.0
 40
0.0
 40
1.041094189847545
 40
1.479515423123562
 40
2.588959187877695
 40
3.233984595434581
 40
4.776882089831686
 40
4.880086346309197
 40
4.880086346309197
 40
4.880086346309197
 40
4.880086346309197
 10
30.136925706926633
 20
252.66031007842233
 10
29.393169159549217
 20
252.14938046218325
 10
28.3362049639575
 20
251.4232903017328
 10
28.217251874658615
 20
248.734108231507
 10
30.717219579829617
 20
249.9693984443684
 10
34.11110848772958
 20
249.0022856858341
 10
31.584621955236145
 20
252.72091268041189
 10
30.222335814868785
 20
252.6638854657231
 10
30.136925706926633
 20
252.66031007842233
 97
0
 97
0
 75
0
 76
1
 52
0.0
 41
0.5000000000000001
 77
0
 78
1
 53
0.0
 43
-2547.1613147426
 44
-262.6486975422
 45
0.1984375
 46
0.396875
 79
2
 49
0.0
 49
-0.396875
 47
0.0042562095306287
 98
1
 10
2.951603431360383
 20
1.607248614912361
1001
ACAD
1010
0.0
1020
0.0
1030
0.0
  0
HATCH
  5
3E
330
17
100
AcDbEntity
  8
加固措施
 62
7
370
-2
100
AcDbHatch
 10
0.0
 20
0.0
 30
0.0
210
0.0
220
0.0
230
1.0
  2
DOTS
 70
0
 71
0
 91
1
 92
5
 93
1
 72
4
 94
3
 73
0
 74
0
 95
13
 96
9
 40
0.0
 40
0.0
 40
0.0
 40
0.0
 40
5.205470949238192
 40
7.397577115618391
 40
12.94479593938928
 40
16.16992297717394
 40
23.88441044916003
 40
24.40043173154758
 40
24.40043173154758
 40
24.40043173154758
 40
24.40043173154758
 10
30.136925706926633
 20
252.66031007842233
 10
29.393169159549217
 20
252.14938046218325
 10
28.3362049639575
 20
251.4232903017328
 10
28.217251874658615
 20
248.734108231507
 10
30.717219579829617
 20
249.9693984443593
 10
34.11110848772958
 20
249.0022856858341
 10
31.58462195522887
 20
252.72091268041189
 10
30.222335814868785
 20
252.6638854657231
 10
30.136925706926633
 20
252.66031007842233
 97
0
 97
0
 75
1
 76
1
 52
0.0
 41
0.5000000000000001
 77
0
 78
1
 53
0.0
 43
-1509.9045751446
 44
-114.7962191375
 45
0.1984375
 46
0.396875
 79
2
 49
0.0
 49
-0.396875
 47
0.0249828096589368
 98
1
 10
2.489201724020205
 20
1.709159144376837
1001
GradientColor1ACI
1070
5
1001
GradientColor2ACI
1070
2
1001
ACAD
1010
0.0
1020
0.0
1030
0.0
  0
SPLINE
  5
3F
330
17
100
AcDbEntity
  8
0
370
-2
100
AcDbSpline
 70
1065
 71
3
 72
13
 73
9
 74
7
 42
1e-09
 40
0.0
 40
0.0
 40
0.0
 40
0.0
 40
2.6027354746146
 40
3.698788557806291
 40
6.472397969687189
 40
8.084961488574518
 40
11.94220522456679
 40
12.2002158657583
 40
12.2002158657583
 40
12.2002158657583
 40
12.2002158657583
 10
30.136925706926633
 20
252.66031007842233
 30
0.0
 10
29.39316915956013
 20
252.14938046218506
 30
0.0
 10
28.33620496397205
 20
251.4232903017328
 30
0.0
 10
28.217251874662253
 20
248.73410823151156
 30
0.0
 10
30.717219579833255
 20
249.9693984443666
 30
0.0
 10
34.11110848772958
 20
249.0022856858341
 30
0.0
 10
31.58462195524342
 20
252.72091268041007
 30
0.0
 10
30.222335814872423
 20
252.66388546572037
 30
0.0
 10
30.136925706926633
 20
252.66031007842233
 30
0.0
 11
30.136925706926633
 21
252.66031007842233
 31
0.0
 11
28.395357265918648
 21
250.7260993049795
 31
0.0
 11
28.395357265918648
 21
249.6300462217878
 31
0.0
 11
31.168966677799546
 21
249.6300462217878
 31
0.0
 11
32.78153019668687
 21
249.6300462217878
 31
0.0
 11
30.394936348118136
 21
252.66031007842233
 31
0.0
 11
30.136925706926633
 21
252.66031007842233
 31
0.0
  0
HATCH
  5
40
330
17
100
AcDbEntity
  8
病害
 62
4
370
-2
100
AcDbHatch
 10
0.0
 20
0.0
 30
0.0
210
0.0
220
0.0
230
1.0
  2
DOTS
 70
0
 71
0
 91
1
 92
5
 93
1
 72
4
 94
3
 73
0
 74
0
 95
13
 96
9
 40
0.0
 40
0.0
 40
0.0
 40
0.0
 40
1.041094189847545
 40
1.479515423123562
 40
2.588959187877695
 40
3.233984595434581
 40
4.776882089831686
 40
4.880086346309197
 40
4.880086346309197
 40
4.880086346309197
 40
4.880086346309197
 10
30.136925706926633
 20
252.66031007842233
 10
29.393169159549217
 20
252.14938046218325
 10
28.3362049639575
 20
251.4232903017328
 10
28.217251874658615
 20
248.734108231507
 10
30.717219579829617
 20
249.9693984443684
 10
34.11110848772958
 20
249.0022856858341
 10
31.584621955236145
 20
252.72091268041189
 10
30.222335814868785
 20
252.6638854657231
 10
30.136925706926633
 20
252.66031007842233
 97
0
 97
0
 75
0
 76
1
 52
0.0
 41
0.5000000000000001
 77
0
 78
1
 53
0.0
 43
-2547.1613147426
 44
-262.6486975422
 45
0.1984375
 46
0.396875
 79
2
 49
0.0
 49
-0.396875
 47
0.0042562095306287
 98
1
 10
2.951603431360383
 20
1.607248614912361
1001
ACAD
1010
0.0
1020
0.0
1030
0.0
  0
HATCH
  5
41
330
17
100
AcDbEntity
  8
加固措施
 62
7
370
-2
100
AcDbHatch
 10
0.0
 20
0.0
 30
0.0
210
0.0
220
0.0
230
1.0
  2
DOTS
 70
0
 71
0
 91
1
 92
5
 93
1
 72
4
 94
3
 73
0
 74
0
 95
13
 96
9
 40
0.0
 40
0.0
 40
0.0
 40
0.0
 40
5.205470949238192
 40
7.397577115618391
 40
12.94479593938928
 40
16.16992297717394
 40
23.88441044916003
 40
24.40043173154758
 40
24.40043173154758
 40
24.40043173154758
 40
24.40043173154758
 10
52.620230139223644
 20
252.66031007842233
 10
51.87647359184623
 20
252.14938046218325
 10
50.81950939625451
 20
251.4232903017328
 10
50.700556306955626
 20
248.734108231507
 10
53.20052401212663
 20
249.9693984443593
 10
56.59441292002659
 20
249.0022856858341
 10
54.06792638752588
 20
252.72091268041189
 10
52.705640247165796
 20
252.6638854657231
 10
52.620230139223644
 20
252.66031007842233
 97
0
 97
0
 75
1
 76
1
 52
0.0
 41
0.5000000000000001
 77
0
 78
1
 53
0.0
 43
-1509.9045751446
 44
-114.7962191375
 45
0.1984375
 46
0.396875
 79
2
 49
0.0
 49
-0.396875
 47
0.0249828096589368
 98
1
 10
2.489201724020205
 20
1.709159144376837
1001
GradientColor1ACI
1070
5
1001
GradientColor2ACI
1070
2
1001
ACAD
1010
0.0
1020
0.0
1030
0.0
  0
SPLINE
  5
42
330
17
100
AcDbEntity
  8
0
370
-2
100
AcDbSpline
 70
1065
 71
3
 72
13
 73
9
 74
7
 42
1e-09
 40
0.0
 40
0.0
 40
0.0
 40
0.0
 40
2.6027354746146
 40
3.698788557806291
 40
6.472397969687189
 40
8.084961488574518
 40
11.94220522456679
 40
12.2002158657583
 40
12.2002158657583
 40
12.2002158657583
 40
12.2002158657583
 10
52.620230139223644
 20
252.66031007842233
 30
0.0
 10
51.87647359185714
 20
252.14938046218506
 30
0.0
 10
50.81950939626906
 20
251.4232903017328
 30
0.0
 10
50.700556306959264
 20
248.73410823151156
 30
0.0
 10
53.200524012130266
 20
249.9693984443666
 30
0.0
 10
56.59441292002659
 20
249.0022856858341
 30
0.0
 10
54.06792638754043
 20
252.72091268041007
 30
0.0
 10
52.705640247169434
 20
252.66388546572037
 30
0.0
 10
52.620230139223644
 20
252.66031007842233
 30
0.0
 11
52.620230139223644
 21
252.66031007842233
 31
0.0
 11
50.87866169821566
 21
250.7260993049795
 31
0.0
 11
50.87866169821566
 21
249.6300462217878
 31
0.0
 11
53.65227111009656
 21
249.6300462217878
 31
0.0
 11
55.264834628983884
 21
249.6300462217878
 31
0.0
 11
52.87824078041515
 21
252.66031007842233
 31
0.0
 11
52.620230139223644
 21
252.66031007842233
 31
0.0
  0
HATCH
  5
43
330
17
100
AcDbEntity
  8
病害
 62
4
370
-2
100
AcDbHatch
 10
0.0
 20
0.0
 30
0.0
210
0.0
220
0.0
230
1.0
  2
DOTS
 70
0
 71
0
 91
1
 92
5
 93
1
 72
4
 94
3
 73
0
 74
0
 95
13
 96
9
 40
0.0
 40
0.0
 40
0.0
 40
0.0
 40
1.041094189847545
 40
1.479515423123562
 40
2.588959187877695
 40
3.233984595434581
 40
4.776882089831686
 40
4.880086346309197
 40
4.880086346309197
 40
4.880086346309197
 40
4.880086346309197
 10
52.620230139223644
 20
252.66031007842233
 10
51.87647359184623
 20
252.14938046218325
 10
50.81950939625451
 20
251.4232903017328
 10
50.700556306955626
 20
248.734108231507
 10
53.20052401212663
 20
249.9693984443684
 10
56.59441292002659
 20
249.0022856858341
 10
54.067926387533156
 20
252.72091268041189
 10
52.705640247165796
 20
252.6638854657231
 10
52.620230139223644
 20
252.66031007842233
 97
0
 97
0
 75
0
 76
1
 52
0.0
 41
0.5000000000000001
 77
0
 78
1
 53
0.0
 43
-2547.1613147426
 44
-262.6486975422
 45
0.1984375
 46
0.396875
 79
2
 49
0.0
 49
-0.396875
 47
0.0042562095306287
 98
1
 10
2.951603431360383
 20
1.607248614912361
1001
ACAD
1010
0.0
1020
0.0
1030
0.0
  0
HATCH
  5
44
330
17
100
AcDbEntity
  8
加固措施
 62
7
370
-2
100
AcDbHatch
 10
0.0
 20
0.0
 30
0.0
210
0.0
220
0.0
230
1.0
  2
DOTS
 70
0
 71
0
 91
1
 92
5
 93
1
 72
4
 94
3
 73
0
 74
0
 95
13
 96
9
 40
0.0
 40
0.0
 40
0.0
 40
0.0
 40
5.205470949238192
 40
7.397577115618391
 40
12.94479593938928
 40
16.16992297717394
 40
23.88441044916003
 40
24.40043173154758
 40
24.40043173154758
 40
24.40043173154758
 40
24.40043173154758
 10
52.620230139223644
 20
252.66031007842233
 10
51.87647359184623
 20
252.14938046218325
 10
50.81950939625451
 20
251.4232903017328
 10
50.700556306955626
 20
248.734108231507
 10
53.20052401212663
 20
249.9693984443593
 10
56.59441292002659
 20
249.0022856858341
 10
54.06792638752588
 20
252.72091268041189
 10
52.705640247165796
 20
252.6638854657231
 10
52.620230139223644
 20
252.66031007842233
 97
0
 97
0
 75
1
 76
1
 52
0.0
 41
0.5000000000000001
 77
0
 78
1
 53
0.0
 43
-1509.9045751446
 44
-114.7962191375
 45
0.1984375
 46
0.396875
 79
2
 49
0.0
 49
-0.396875
 47
0.0249828096589368
 98
1
 10
2.489201724020205
 20
1.709159144376837
1001
GradientColor1ACI
1070
5
1001
GradientColor2ACI
1070
2
1001
ACAD
1010
0.0
1020
0.0
1030
0.0
  0
SPLINE
  5
45
330
17
100
AcDbEntity
  8
0
370
-2
100
AcDbSpline
 70
1065
 71
3
 72
13
 73
9
 74
7
 42
1e-09
 40
0.0
 40
0.0
 40
0.0
 40
0.0
 40
2.6027354746146
 40
3.698788557806291
 40
6.472397969687189
 40
8.084961488574518
 40
11.94220522456679
 40
12.2002158657583
 40
12.2002158657583
 40
12.2002158657583
 40
12.2002158657583
 10
52.620230139223644
 20
252.66031007842233
 30
0.0
 10
51.87647359185714
 20
252.14938046218506
 30
0.0
 10
50.81950939626906
 20
251.4232903017328
 30
0.0
 10
50.700556306959264
 20
248.73410823151156
 30
0.0
 10
53.200524012130266
 20
249.9693984443666
 30
0.0
 10
56.59441292002659
 20
249.0022856858341
 30
0.0
 10
54.06792638754043
 20
252.72091268041007
 30
0.0
 10
52.705640247169434
 20
252.66388546572037
 30
0.0
 10
52.620230139223644
 20
252.66031007842233
 30
0.0
 11
52.620230139223644
 21
252.66031007842233
 31
0.0
 11
50.87866169821566
 21
250.7260993049795
 31
0.0
 11
50.87866169821566
 21
249.6300462217878
 31
0.0
 11
53.65227111009656
 21
249.6300462217878
 31
0.0
 11
55.264834628983884
 21
249.6300462217878
 31
0.0
 11
52.87824078041515
 21
252.66031007842233
 31
0.0
 11
52.620230139223644
 21
252.66031007842233
 31
0.0
  0
HATCH
  5
46
330
17
100
AcDbEntity
  8
病害
 62
4
370
-2
100
AcDbHatch
 10
0.0
 20
0.0
 30
0.0
210
0.0
220
0.0
230
1.0
  2
DOTS
 70
0
 71
0
 91
1
 92
5
 93
1
 72
4
 94
3
 73
0
 74
0
 95
13
 96
9
 40
0.0
 40
0.0
 40
0.0
 40
0.0
 40
1.041094189847545
 40
1.479515423123562
 40
2.588959187877695
 40
3.233984595434581
 40
4.776882089831686
 40
4.880086346309197
 40
4.880086346309197
 40
4.880086346309197
 40
4.880086346309197
 10
52.620230139223644
 20
252.66031007842233
 10
51.87647359184623
 20
252.14938046218325
 10
50.81950939625451
 20
251.4232903017328
 10
50.700556306955626
 20
248.734108231507
 10
53.20052401212663
 20
249.9693984443684
 10
56.59441292002659
 20
249.0022856858341
 10
54.067926387533156
 20
252.72091268041189
 10
52.705640247165796
 20
252.6638854657231
 10
52.620230139223644
 20
252.66031007842233
 97
0
 97
0
 75
0
 76
1
 52
0.0
 41
0.5000000000000001
 77
0
 78
1
 53
0.0
 43
-2547.1613147426
 44
-262.6486975422
 45
0.1984375
 46
0.396875
 79
2
 49
0.0
 49
-0.396875
 47
0.0042562095306287
 98
1
 10
2.951603431360383
 20
1.607248614912361
1001
ACAD
1010
0.0
1020
0.0
1030
0.0
  0
HATCH
  5
47
330
17
100
AcDbEntity
  8
加固措施
 62
7
370
-2
100
AcDbHatch
 10
0.0
 20
0.0
 30
0.0
210
0.0
220
0.0
230
1.0
  2
DOTS
 70
0
 71
0
 91
1
 92
5
 93
1
 72
4
 94
3
 73
0
 74
0
 95
13
 96
9
 40
0.0
 40
0.0
 40
0.0
 40
0.0
 40
5.205470949238192
 40
7.397577115618391
 40
12.94479593938928
 40
16.16992297717394
 40
23.88441044916003
 40
24.40043173154758
 40
24.40043173154758
 40
24.40043173154758
 40
24.40043173154758
 10
30.136925706926633
 20
255.96512293844322
 10
29.393169159549217
 20
255.45419332220413
 10
28.3362049639575
 20
254.7281031617537
 10
28.217251874658615
 20
252.0389210915279
 10
30.717219579829617
 20
253.2742113043802
 10
34.11110848772958
 20
252.30709854585498
 10
31.58462195522887
 20
256.0257255404328
 10
30.222335814868785
 20
255.968698325744
 10
30.136925706926633
 20
255.96512293844322
 97
0
 97
0
 75
1
 76
1
 52
0.0
 41
0.5000000000000001
 77
0
 78
1
 53
0.0
 43
-1509.9045751446
 44
-114.7962191375
 45
0.1984375
 46
0.396875
 79
2
 49
0.0
 49
-0.396875
 47
0.0249828096589368
 98
1
 10
2.489201724020205
 20
1.709159144376837
1001
GradientColor1ACI
1070
5
1001
GradientColor2ACI
1070
2
1001
ACAD
1010
0.0
1020
0.0
1030
0.0
  0
SPLINE
  5
48
330
17
100
AcDbEntity
  8
0
370
-2
100
AcDbSpline
 70
1065
 71
3
 72
13
 73
9
 74
7
 42
1e-09
 40
0.0
 40
0.0
 40
0.0
 40
0.0
 40
2.6027354746146
 40
3.698788557806291
 40
6.472397969687189
 40
8.084961488574518
 40
11.94220522456679
 40
12.2002158657583
 40
12.2002158657583
 40
12.2002158657583
 40
12.2002158657583
 10
30.136925706926633
 20
255.96512293844322
 30
0.0
 10
29.39316915956013
 20
255.45419332220595
 30
0.0
 10
28.33620496397205
 20
254.7281031617537
 30
0.0
 10
28.217251874662253
 20
252.03892109153244
 30
0.0
 10
30.717219579833255
 20
253.27421130438748
 30
0.0
 10
34.11110848772958
 20
252.30709854585498
 30
0.0
 10
31.58462195524342
 20
256.025725540431
 30
0.0
 10
30.222335814872423
 20
255.96869832574126
 30
0.0
 10
30.136925706926633
 20
255.96512293844322
 30
0.0
 11
30.136925706926633
 21
255.96512293844322
 31
0.0
 11
28.395357265918648
 21
254.0309121650004
 31
0.0
 11
28.395357265918648
 21
252.9348590818087
 31
0.0
 11
31.168966677799546
 21
252.9348590818087
 31
0.0
 11
32.78153019668687
 21
252.9348590818087
 31
0.0
 11
30.394936348118136
 21
255.96512293844322
 31
0.0
 11
30.136925706926633
 21
255.96512293844322
 31
0.0
  0
HATCH
  5
49
330
17
100
AcDbEntity
  8
病害
 62
4
370
-2
100
AcDbHatch
 10
0.0
 20
0.0
 30
0.0
210
0.0
220
0.0
230
1.0
  2
DOTS
 70
0
 71
0
 91
1
 92
5
 93
1
 72
4
 94
3
 73
0
 74
0
 95
13
 96
9
 40
0.0
 40
0.0
 40
0.0
 40
0.0
 40
1.041094189847545
 40
1.479515423123562
 40
2.588959187877695
 40
3.233984595434581
 40
4.776882089831686
 40
4.880086346309197
 40
4.880086346309197
 40
4.880086346309197
 40
4.880086346309197
 10
30.136925706926633
 20
255.96512293844322
 10
29.393169159549217
 20
255.45419332220413
 10
28.3362049639575
 20
254.7281031617537
 10
28.217251874658615
 20
252.0389210915279
 10
30.717219579829617
 20
253.2742113043893
 10
34.11110848772958
 20
252.30709854585498
 10
31.584621955236145
 20
256.0257255404328
 10
30.222335814868785
 20
255.968698325744
 10
30.136925706926633
 20
255.96512293844322
 97
0
 97
0
 75
0
 76
1
 52
0.0
 41
0.5000000000000001
 77
0
 78
1
 53
0.0
 43
-2547.1613147426
 44
-262.6486975422
 45
0.1984375
 46
0.396875
 79
2
 49
0.0
 49
-0.396875
 47
0.0042562095306287
 98
1
 10
2.951603431360383
 20
1.607248614912361
1001
ACAD
1010
0.0
1020
0.0
1030
0.0
  0
HATCH
  5
4A
330
17
100
AcDbEntity
  8
加固措施
 62
7
370
-2
100
AcDbHatch
 10
0.0
 20
0.0
 30
0.0
210
0.0
220
0.0
230
1.0
  2
DOTS
 70
0
 71
0
 91
1
 92
5
 93
1
 72
4
 94
3
 73
0
 74
0
 95
13
 96
9
 40
0.0
 40
0.0
 40
0.0
 40
0.0
 40
5.205470949238192
 40
7.397577115618391
 40
12.94479593938928
 40
16.16992297717394
 40
23.88441044916003
 40
24.40043173154758
 40
24.40043173154758
 40
24.40043173154758
 40
24.40043173154758
 10
30.136925706926633
 20
255.96512293844322
 10
29.393169159549217
 20
255.45419332220413
 10
28.3362049639575
 20
254.7281031617537
 10
28.217251874658615
 20
252.0389210915279
 10
30.717219579829617
 20
253.2742113043802
 10
34.11110848772958
 20
252.30709854585498
 10
31.58462195522887
 20
256.0257255404328
 10
30.222335814868785
 20
255.968698325744
 10
30.136925706926633
 20
255.96512293844322
 97
0
 97
0
 75
1
 76
1
 52
0.0
 41
0.5000000000000001
 77
0
 78
1
 53
0.0
 43
-1509.9045751446
 44
-114.7962191375
 45
0.1984375
 46
0.396875
 79
2
 49
0.0
 49
-0.396875
 47
0.0249828096589368
 98
1
 10
2.489201724020205
 20
1.709159144376837
1001
GradientColor1ACI
1070
5
1001
GradientColor2ACI
1070
2
1001
ACAD
1010
0.0
1020
0.0
1030
0.0
  0
SPLINE
  5
4B
330
17
100
AcDbEntity
  8
0
370
-2
100
AcDbSpline
 70
1065
 71
3
 72
13
 73
9
 74
7
 42
1e-09
 40
0.0
 40
0.0
 40
0.0
 40
0.0
 40
2.6027354746146
 40
3.698788557806291
 40
6.472397969687189
 40
8.084961488574518
 40
11.94220522456679
 40
12.2002158657583
 40
12.2002158657583
 40
12.2002158657583
 40
12.2002158657583
 10
30.136925706926633
 20
255.96512293844322
 30
0.0
 10
29.39316915956013
 20
255.45419332220595
 30
0.0
 10
28.33620496397205
 20
254.7281031617537
 30
0.0
 10
28.217251874662253
 20
252.03892109153244
 30
0.0
 10
30.717219579833255
 20
253.27421130438748
 30
0.0
 10
34.11110848772958
 20
252.30709854585498
 30
0.0
 10
31.58462195524342
 20
256.025725540431
 30
0.0
 10
30.222335814872423
 20
255.96869832574126
 30
0.0
 10
30.136925706926633
 20
255.96512293844322
 30
0.0
 11
30.136925706926633
 21
255.96512293844322
 31
0.0
 11
28.395357265918648
 21
254.0309121650004
 31
0.0
 11
28.395357265918648
 21
252.9348590818087
 31
0.0
 11
31.168966677799546
 21
252.9348590818087
 31
0.0
 11
32.78153019668687
 21
252.9348590818087
 31
0.0
 11
30.394936348118136
 21
255.96512293844322
 31
0.0
 11
30.136925706926633
 21
255.96512293844322
 31
0.0
  0
HATCH
  5
4C
330
17
100
AcDbEntity
  8
病害
 62
4
370
-2
100
AcDbHatch
 10
0.0
 20
0.0
 30
0.0
210
0.0
220
0.0
230
1.0
  2
DOTS
 70
0
 71
0
 91
1
 92
5
 93
1
 72
4
 94
3
 73
0
 74
0
 95
13
 96
9
 40
0.0
 40
0.0
 40
0.0
 40
0.0
 40
1.041094189847545
 40
1.479515423123562
 40
2.588959187877695
 40
3.233984595434581
 40
4.776882089831686
 40
4.880086346309197
 40
4.880086346309197
 40
4.880086346309197
 40
4.880086346309197
 10
30.136925706926633
 20
255.96512293844322
 10
29.393169159549217
 20
255.45419332220413
 10
28.3362049639575
 20
254.7281031617537
 10
28.217251874658615
 20
252.0389210915279
 10
30.717219579829617
 20
253.2742113043893
 10
34.11110848772958
 20
252.30709854585498
 10
31.584621955236145
 20
256.0257255404328
 10
30.222335814868785
 20
255.968698325744
 10
30.136925706926633
 20
255.96512293844322
 97
0
 97
0
 75
0
 76
1
 52
0.0
 41
0.5000000000000001
 77
0
 78
1
 53
0.0
 43
-2547.1613147426
 44
-262.6486975422
 45
0.1984375
 46
0.396875
 79
2
 49
0.0
 49
-0.396875
 47
0.0042562095306287
 98
1
 10
2.951603431360383
 20
1.607248614912361
1001
ACAD
1010
0.0
1020
0.0
1030
0.0
  0
HATCH
  5
4D
330
17
100
AcDbEntity
  8
加固措施
 62
7
370
-2
100
AcDbHatch
 10
0.0
 20
0.0
 30
0.0
210
0.0
220
0.0
230
1.0
  2
DOTS
 70
0
 71
0
 91
1
 92
5
 93
1
 72
4
 94
3
 73
0
 74
0
 95
13
 96
9
 40
0.0
 40
0.0
 40
0.0
 40
0.0
 40
5.205470949238192
 40
7.397577115618391
 40
12.94479593938928
 40
16.16992297717394
 40
23.88441044916003
 40
24.40043173154758
 40
24.40043173154758
 40
24.40043173154758
 40
24.40043173154758
 10
52.620230139223644
 20
255.96512293844322
 10
51.87647359184623
 20
255.45419332220413
 10
50.81950939625451
 20
254.7281031617537
 10
50.700556306955626
 20
252.0389210915279
 10
53.20052401212663
 20
253.2742113043802
 10
56.59441292002659
 20
252.30709854585498
 10
54.06792638752588
 20
256.0257255404328
 10
52.705640247165796
 20
255.968698325744
 10
52.620230139223644
 20
255.96512293844322
 97
0
 97
0
 75
1
 76
1
 52
0.0
 41
0.5000000000000001
 77
0
 78
1
 53
0.0
 43
-1509.9045751446
 44
-114.7962191375
 45
0.1984375
 46
0.396875
 79
2
 49
0.0
 49
-0.396875
 47
0.0249828096589368
 98
1
 10
2.489201724020205
 20
1.709159144376837
1001
GradientColor1ACI
1070
5
1001
GradientColor2ACI
1070
2
1001
ACAD
1010
0.0
1020
0.0
1030
0.0
  0
SPLINE
  5
4E
330
17
100
AcDbEntity
  8
0
370
-2
100
AcDbSpline
 70
1065
 71
3
 72
13
 73
9
 74
7
 42
1e-09
 40
0.0
 40
0.0
 40
0.0
 40
0.0
 40
2.6027354746146
 40
3.698788557806291
 40
6.472397969687189
 40
8.084961488574518
 40
11.94220522456679
 40
12.2002158657583
 40
12.2002158657583
 40
12.2002158657583
 40
12.2002158657583
 10
52.620230139223644
 20
255.96512293844322
 30
0.0
 10
51.87647359185714
 20
255.45419332220595
 30
0.0
 10
50.81950939626906
 20
254.7281031617537
 30
0.0
 10
50.700556306959264
 20
252.03892109153244
 30
0.0
 10
53.200524012130266
 20
253.27421130438748
 30
0.0
 10
56.59441292002659
 20
252.30709854585498
 30
0.0
 10
54.06792638754043
 20
256.025725540431
 30
0.0
 10
52.705640247169434
 20
255.96869832574126
 30
0.0
 10
52.620230139223644
 20
255.96512293844322
 30
0.0
 11
52.620230139223644
 21
255.96512293844322
 31
0.0
 11
50.87866169821566
 21
254.0309121650004
 31
0.0
 11
50.87866169821566
 21
252.9348590818087
 31
0.0
 11
53.65227111009656
 21
252.9348590818087
 31
0.0
 11
55.264834628983884
 21
252.9348590818087
 31
0.0
 11
52.87824078041515
 21
255.96512293844322
 31
0.0
 11
52.620230139223644
 21
255.96512293844322
 31
0.0
  0
HATCH
  5
4F
330
17
100
AcDbEntity
  8
病害
 62
4
370
-2
100
AcDbHatch
 10
0.0
 20
0.0
 30
0.0
210
0.0
220
0.0
230
1.0
  2
DOTS
 70
0
 71
0
 91
1
 92
5
 93
1
 72
4
 94
3
 73
0
 74
0
 95
13
 96
9
 40
0.0
 40
0.0
 40
0.0
 40
0.0
 40
1.041094189847545
 40
1.479515423123562
 40
2.588959187877695
 40
3.233984595434581
 40
4.776882089831686
 40
4.880086346309197
 40
4.880086346309197
 40
4.880086346309197
 40
4.880086346309197
 10
52.620230139223644
 20
255.96512293844322
 10
51.87647359184623
 20
255.45419332220413
 10
50.81950939625451
 20
254.7281031617537
 10
50.700556306955626
 20
252.0389210915279
 10
53.20052401212663
 20
253.2742113043893
 10
56.59441292002659
 20
252.30709854585498
 10
54.067926387533156
 20
256.0257255404328
 10
52.705640247165796
 20
255.968698325744
 10
52.620230139223644
 20
255.96512293844322
 97
0
 97
0
 75
0
 76
1
 52
0.0
 41
0.5000000000000001
 77
0
 78
1
 53
0.0
 43
-2547.1613147426
 44
-262.6486975422
 45
0.1984375
 46
0.396875
 79
2
 49
0.0
 49
-0.396875
 47
0.0042562095306287
 98
1
 10
2.951603431360383
 20
1.607248614912361
1001
ACAD
1010
0.0
1020
0.0
1030
0.0
  0
HATCH
  5
50
330
17
100
AcDbEntity
  8
加固措施
 62
7
370
-2
100
AcDbHatch
 10
0.0
 20
0.0
 30
0.0
210
0.0
220
0.0
230
1.0
  2
DOTS
 70
0
 71
0
 91
1
 92
5
 93
1
 72
4
 94
3
 73
0
 74
0
 95
13
 96
9
 40
0.0
 40
0.0
 40
0.0
 40
0.0
 40
5.205470949238192
 40
7.397577115618391
 40
12.94479593938928
 40
16.16992297717394
 40
23.88441044916003
 40
24.40043173154758
 40
24.40043173154758
 40
24.40043173154758
 40
24.40043173154758
 10
52.620230139223644
 20
255.96512293844322
 10
51.87647359184623
 20
255.45419332220413
 10
50.81950939625451
 20
254.7281031617537
 10
50.700556306955626
 20
252.0389210915279
 10
53.20052401212663
 20
253.2742113043802
 10
56.59441292002659
 20
252.30709854585498
 10
54.06792638752588
 20
256.0257255404328
 10
52.705640247165796
 20
255.968698325744
 10
52.620230139223644
 20
255.96512293844322
 97
0
 97
0
 75
1
 76
1
 52
0.0
 41
0.5000000000000001
 77
0
 78
1
 53
0.0
 43
-1509.9045751446
 44
-114.7962191375
 45
0.1984375
 46
0.396875
 79
2
 49
0.0
 49
-0.396875
 47
0.0249828096589368
 98
1
 10
2.489201724020205
 20
1.709159144376837
1001
GradientColor1ACI
1070
5
1001
GradientColor2ACI
1070
2
1001
ACAD
1010
0.0
1020
0.0
1030
0.0
  0
SPLINE
  5
51
330
17
100
AcDbEntity
  8
0
370
-2
100
AcDbSpline
 70
1065
 71
3
 72
13
 73
9
 74
7
 42
1e-09
 40
0.0
 40
0.0
 40
0.0
 40
0.0
 40
2.6027354746146
 40
3.698788557806291
 40
6.472397969687189
 40
8.084961488574518
 40
11.94220522456679
 40
12.2002158657583
 40
12.2002158657583
 40
12.2002158657583
 40
12.2002158657583
 10
52.620230139223644
 20
255.96512293844322
 30
0.0
 10
51.87647359185714
 20
255.45419332220595
 30
0.0
 10
50.81950939626906
 20
254.7281031617537
 30
0.0
 10
50.700556306959264
 20
252.03892109153244
 30
0.0
 10
53.200524012130266
 20
253.27421130438748
 30
0.0
 10
56.59441292002659
 20
252.30709854585498
 30
0.0
 10
54.06792638754043
 20
256.025725540431
 30
0.0
 10
52.705640247169434
 20
255.96869832574126
 30
0.0
 10
52.620230139223644
 20
255.96512293844322
 30
0.0
 11
52.620230139223644
 21
255.96512293844322
 31
0.0
 11
50.87866169821566
 21
254.0309121650004
 31
0.0
 11
50.87866169821566
 21
252.9348590818087
 31
0.0
 11
53.65227111009656
 21
252.9348590818087
 31
0.0
 11
55.264834628983884
 21
252.9348590818087
 31
0.0
 11
52.87824078041515
 21
255.96512293844322
 31
0.0
 11
52.620230139223644
 21
255.96512293844322
 31
0.0
  0
HATCH
  5
52
330
17
100
AcDbEntity
  8
病害
 62
4
370
-2
100
AcDbHatch
 10
0.0
 20
0.0
 30
0.0
210
0.0
220
0.0
230
1.0
  2
DOTS
 70
0
 71
0
 91
1
 92
5
 93
1
 72
4
 94
3
 73
0
 74
0
 95
13
 96
9
 40
0.0
 40
0.0
 40
0.0
 40
0.0
 40
1.041094189847545
 40
1.479515423123562
 40
2.588959187877695
 40
3.233984595434581
 40
4.776882089831686
 40
4.880086346309197
 40
4.880086346309197
 40
4.880086346309197
 40
4.880086346309197
 10
52.620230139223644
 20
255.96512293844322
 10
51.87647359184623
 20
255.45419332220413
 10
50.81950939625451
 20
254.7281031617537
 10
50.700556306955626
 20
252.0389210915279
 10
53.20052401212663
 20
253.2742113043893
 10
56.59441292002659
 20
252.30709854585498
 10
54.067926387533156
 20
256.0257255404328
 10
52.705640247165796
 20
255.968698325744
 10
52.620230139223644
 20
255.96512293844322
 97
0
 97
0
 75
0
 76
1
 52
0.0
 41
0.5000000000000001
 77
0
 78
1
 53
0.0
 43
-2547.1613147426
 44
-262.6486975422
 45
0.1984375
 46
0.396875
 79
2
 49
0.0
 49
-0.396875
 47
0.0042562095306287
 98
1
 10
2.951603431360383
 20
1.607248614912361
1001
ACAD
1010
0.0
1020
0.0
1030
0.0
  0
HATCH
  5
53
330
17
100
AcDbEntity
  8
加固措施
 62
7
370
-2
100
AcDbHatch
 10
0.0
 20
0.0
 30
0.0
210
0.0
220
0.0
230
1.0
  2
DOTS
 70
0
 71
0
 91
1
 92
5
 93
1
 72
4
 94
3
 73
0
 74
0
 95
13
 96
9
 40
0.0
 40
0.0
 40
0.0
 40
0.0
 40
5.205470949238192
 40
7.397577115618391
 40
12.94479593938928
 40
16.16992297717394
 40
23.88441044916003
 40
24.40043173154758
 40
24.40043173154758
 40
24.40043173154758
 40
24.40043173154758
 10
30.136925706926633
 20
259.26993579846413
 10
29.393169159549217
 20
258.75900618222505
 10
28.3362049639575
 20
258.0329160217746
 10
28.217251874658615
 20
255.3437339515488
 10
30.717219579829617
 20
256.5790241644011
 10
34.11110848772958
 20
255.6119114058759
 10
31.58462195522887
 20
259.3305384004537
 10
30.222335814868785
 20
259.2735111857649
 10
30.136925706926633
 20
259.26993579846413
 97
0
 97
0
 75
1
 76
1
 52
0.0
 41
0.5000000000000001
 77
0
 78
1
 53
0.0
 43
-1509.9045751446
 44
-114.7962191375
 45
0.1984375
 46
0.396875
 79
2
 49
0.0
 49
-0.396875
 47
0.0249828096589368
 98
1
 10
2.489201724020205
 20
1.709159144376837
1001
GradientColor1ACI
1070
5
1001
GradientColor2ACI
1070
2
1001
ACAD
1010
0.0
1020
0.0
1030
0.0
  0
SPLINE
  5
54
330
17
100
AcDbEntity
  8
0
370
-2
100
AcDbSpline
 70
1065
 71
3
 72
13
 73
9
 74
7
 42
1e-09
 40
0.0
 40
0.0
 40
0.0
 40
0.0
 40
2.6027354746146
 40
3.698788557806291
 40
6.472397969687189
 40
8.084961488574518
 40
11.94220522456679
 40
12.2002158657583
 40
12.2002158657583
 40
12.2002158657583
 40
12.2002158657583
 10
30.136925706926633
 20
259.26993579846413
 30
0.0
 10
29.39316915956013
 20
258.75900618222687
 30
0.0
 10
28.33620496397205
 20
258.0329160217746
 30
0.0
 10
28.217251874662253
 20
255.34373395155336
 30
0.0
 10
30.717219579833255
 20
256.5790241644084
 30
0.0
 10
34.11110848772958
 20
255.6119114058759
 30
0.0
 10
31.58462195524342
 20
259.33053840045187
 30
0.0
 10
30.222335814872423
 20
259.2735111857622
 30
0.0
 10
30.136925706926633
 20
259.26993579846413
 30
0.0
 11
30.136925706926633
 21
259.26993579846413
 31
0.0
 11
28.395357265918648
 21
257.3357250250213
 31
0.0
 11
28.395357265918648
 21
256.2396719418296
 31
0.0
 11
31.168966677799546
 21
256.2396719418296
 31
0.0
 11
32.78153019668687
 21
256.2396719418296
 31
0.0
 11
30.394936348118136
 21
259.26993579846413
 31
0.0
 11
30.136925706926633
 21
259.26993579846413
 31
0.0
  0
HATCH
  5
55
330
17
100
AcDbEntity
  8
病害
 62
4
370
-2
100
AcDbHatch
 10
0.0
 20
0.0
 30
0.0
210
0.0
220
0.0
230
1.0
  2
DOTS
 70
0
 71
0
 91
1
 92
5
 93
1
 72
4
 94
3
 73
0
 74
0
 95
13
 96
9
 40
0.0
 40
0.0
 40
0.0
 40
0.0
 40
1.041094189847545
 40
1.479515423123562
 40
2.588959187877695
 40
3.233984595434581
 40
4.776882089831686
 40
4.880086346309197
 40
4.880086346309197
 40
4.880086346309197
 40
4.880086346309197
 10
30.136925706926633
 20
259.26993579846413
 10
29.393169159549217
 20
258.75900618222505
 10
28.3362049639575
 20
258.0329160217746
 10
28.217251874658615
 20
255.3437339515488
 10
30.717219579829617
 20
256.5790241644102
 10
34.11110848772958
 20
255.6119114058759
 10
31.584621955236145
 20
259.3305384004537
 10
30.222335814868785
 20
259.2735111857649
 10
30.136925706926633
 20
259.26993579846413
 97
0
 97
0
 75
0
 76
1
 52
0.0
 41
0.5000000000000001
 77
0
 78
1
 53
0.0
 43
-2547.1613147426
 44
-262.6486975422
 45
0.1984375
 46
0.396875
 79
2
 49
0.0
 49
-0.396875
 47
0.0042562095306287
 98
1
 10
2.951603431360383
 20
1.607248614912361
1001
ACAD
1010
0.0
1020
0.0
1030
0.0
  0
HATCH
  5
56
330
17
100
AcDbEntity
  8
加固措施
 62
7
370
-2
100
AcDbHatch
 10
0.0
 20
0.0
 30
0.0
210
0.0
220
0.0
230
1.0
  2
DOTS
 70
0
 71
0
 91
1
 92
5
 93
1
 72
4
 94
3
 73
0
 74
0
 95
13
 96
9
 40
0.0
 40
0.0
 40
0.0
 40
0.0
 40
5.205470949238192
 40
7.397577115618391
 40
12.94479593938928
 40
16.16992297717394
 40
23.88441044916003
 40
24.40043173154758
 40
24.40043173154758
 40
24.40043173154758
 40
24.40043173154758
 10
30.136925706926633
 20
259.26993579846413
 10
29.393169159549217
 20
258.75900618222505
 10
28.3362049639575
 20
258.0329160217746
 10
28.217251874658615
 20
255.3437339515488
 10
30.717219579829617
 20
256.5790241644011
 10
34.11110848772958
 20
255.6119114058759
 10
31.58462195522887
 20
259.3305384004537
 10
30.222335814868785
 20
259.2735111857649
 10
30.136925706926633
 20
259.26993579846413
 97
0
 97
0
 75
1
 76
1
 52
0.0
 41
0.5000000000000001
 77
0
 78
1
 53
0.0
 43
-1509.9045751446
 44
-114.7962191375
 45
0.1984375
 46
0.396875
 79
2
 49
0.0
 49
-0.396875
 47
0.0249828096589368
 98
1
 10
2.489201724020205
 20
1.709159144376837
1001
GradientColor1ACI
1070
5
1001
GradientColor2ACI
1070
2
1001
ACAD
1010
0.0
1020
0.0
1030
0.0
  0
SPLINE
  5
57
330
17
100
AcDbEntity
  8
0
370
-2
100
AcDbSpline
 70
1065
 71
3
 72
13
 73
9
 74
7
 42
1e-09
 40
0.0
 40
0.0
 40
0.0
 40
0.0
 40
2.6027354746146
 40
3.698788557806291
 40
6.472397969687189
 40
8.084961488574518
 40
11.94220522456679
 40
12.2002158657583
 40
12.2002158657583
 40
12.2002158657583
 40
12.2002158657583
 10
30.136925706926633
 20
259.26993579846413
 30
0.0
 10
29.39316915956013
 20
258.75900618222687
 30
0.0
 10
28.33620496397205
 20
258.0329160217746
 30
0.0
 10
28.217251874662253
 20
255.34373395155336
 30
0.0
 10
30.717219579833255
 20
256.5790241644084
 30
0.0
 10
34.11110848772958
 20
255.6119114058759
 30
0.0
 10
31.58462195524342
 20
259.33053840045187
 30
0.0
 10
30.222335814872423
 20
259.2735111857622
 30
0.0
 10
30.136925706926633
 20
259.26993579846413
 30
0.0
 11
30.136925706926633
 21
259.26993579846413
 31
0.0
 11
28.395357265918648
 21
257.3357250250213
 31
0.0
 11
28.395357265918648
 21
256.2396719418296
 31
0.0
 11
31.168966677799546
 21
256.2396719418296
 31
0.0
 11
32.78153019668687
 21
256.2396719418296
 31
0.0
 11
30.394936348118136
 21
259.26993579846413
 31
0.0
 11
30.136925706926633
 21
259.26993579846413
 31
0.0
  0
HATCH
  5
58
330
17
100
AcDbEntity
  8
病害
 62
4
370
-2
100
AcDbHatch
 10
0.0
 20
0.0
 30
0.0
210
0.0
220
0.0
230
1.0
  2
DOTS
 70
0
 71
0
 91
1
 92
5
 93
1
 72
4
 94
3
 73
0
 74
0
 95
13
 96
9
 40
0.0
 40
0.0
 40
0.0
 40
0.0
 40
1.041094189847545
 40
1.479515423123562
 40
2.588959187877695
 40
3.233984595434581
 40
4.776882089831686
 40
4.880086346309197
 40
4.880086346309197
 40
4.880086346309197
 40
4.880086346309197
 10
30.136925706926633
 20
259.26993579846413
 10
29.393169159549217
 20
258.75900618222505
 10
28.3362049639575
 20
258.0329160217746
 10
28.217251874658615
 20
255.3437339515488
 10
30.717219579829617
 20
256.5790241644102
 10
34.11110848772958
 20
255.6119114058759
 10
31.584621955236145
 20
259.3305384004537
 10
30.222335814868785
 20
259.2735111857649
 10
30.136925706926633
 20
259.26993579846413
 97
0
 97
0
 75
0
 76
1
 52
0.0
 41
0.5000000000000001
 77
0
 78
1
 53
0.0
 43
-2547.1613147426
 44
-262.6486975422
 45
0.1984375
 46
0.396875
 79
2
 49
0.0
 49
-0.396875
 47
0.0042562095306287
 98
1
 10
2.951603431360383
 20
1.607248614912361
1001
ACAD
1010
0.0
1020
0.0
1030
0.0
  0
HATCH
  5
59
330
17
100
AcDbEntity
  8
加固措施
 62
7
370
-2
100
AcDbHatch
 10
0.0
 20
0.0
 30
0.0
210
0.0
220
0.0
230
1.0
  2
DOTS
 70
0
 71
0
 91
1
 92
5
 93
1
 72
4
 94
3
 73
0
 74
0
 95
13
 96
9
 40
0.0
 40
0.0
 40
0.0
 40
0.0
 40
5.205470949238192
 40
7.397577115618391
 40
12.94479593938928
 40
16.16992297717394
 40
23.88441044916003
 40
24.40043173154758
 40
24.40043173154758
 40
24.40043173154758
 40
24.40043173154758
 10
52.620230139223644
 20
259.26993579846413
 10
51.87647359184623
 20
258.75900618222505
 10
50.81950939625451
 20
258.0329160217746
 10
50.700556306955626
 20
255.3437339515488
 10
53.20052401212663
 20
256.5790241644011
 10
56.59441292002659
 20
255.6119114058759
 10
54.06792638752588
 20
259.3305384004537
 10
52.705640247165796
 20
259.2735111857649
 10
52.620230139223644
 20
259.26993579846413
 97
0
 97
0
 75
1
 76
1
 52
0.0
 41
0.5000000000000001
 77
0
 78
1
 53
0.0
 43
-1509.9045751446
 44
-114.7962191375
 45
0.1984375
 46
0.396875
 79
2
 49
0.0
 49
-0.396875
 47
0.0249828096589368
 98
1
 10
2.489201724020205
 20
1.709159144376837
1001
GradientColor1ACI
1070
5
1001
GradientColor2ACI
1070
2
1001
ACAD
1010
0.0
1020
0.0
1030
0.0
  0
SPLINE
  5
5A
330
17
100
AcDbEntity
  8
0
370
-2
100
AcDbSpline
 70
1065
 71
3
 72
13
 73
9
 74
7
 42
1e-09
 40
0.0
 40
0.0
 40
0.0
 40
0.0
 40
2.6027354746146
 40
3.698788557806291
 40
6.472397969687189
 40
8.084961488574518
 40
11.94220522456679
 40
12.2002158657583
 40
12.2002158657583
 40
12.2002158657583
 40
12.2002158657583
 10
52.620230139223644
 20
259.26993579846413
 30
0.0
 10
51.87647359185714
 20
258.75900618222687
 30
0.0
 10
50.81950939626906
 20
258.0329160217746
 30
0.0
 10
50.700556306959264
 20
255.34373395155336
 30
0.0
 10
53.200524012130266
 20
256.5790241644084
 30
0.0
 10
56.59441292002659
 20
255.6119114058759
 30
0.0
 10
54.06792638754043
 20
259.33053840045187
 30
0.0
 10
52.705640247169434
 20
259.2735111857622
 30
0.0
 10
52.620230139223644
 20
259.26993579846413
 30
0.0
 11
52.620230139223644
 21
259.26993579846413
 31
0.0
 11
50.87866169821566
 21
257.3357250250213
 31
0.0
 11
50.87866169821566
 21
256.2396719418296
 31
0.0
 11
53.65227111009656
 21
256.2396719418296
 31
0.0
 11
55.264834628983884
 21
256.2396719418296
 31
0.0
 11
52.87824078041515
 21
259.26993579846413
 31
0.0
 11
52.620230139223644
 21
259.26993579846413
 31
0.0
  0
HATCH
  5
5B
330
17
100
AcDbEntity
  8
病害
 62
4
370
-2
100
AcDbHatch
 10
0.0
 20
0.0
 30
0.0
210
0.0
220
0.0
230
1.0
  2
DOTS
 70
0
 71
0
 91
1
 92
5
 93
1
 72
4
 94
3
 73
0
 74
0
 95
13
 96
9
 40
0.0
 40
0.0
 40
0.0
 40
0.0
 40
1.041094189847545
 40
1.479515423123562
 40
2.588959187877695
 40
3.233984595434581
 40
4.776882089831686
 40
4.880086346309197
 40
4.880086346309197
 40
4.880086346309197
 40
4.880086346309197
 10
52.620230139223644
 20
259.26993579846413
 10
51.87647359184623
 20
258.75900618222505
 10
50.81950939625451
 20
258.0329160217746
 10
50.700556306955626
 20
255.3437339515488
 10
53.20052401212663
 20
256.5790241644102
 10
56.59441292002659
 20
255.6119114058759
 10
54.067926387533156
 20
259.3305384004537
 10
52.705640247165796
 20
259.2735111857649
 10
52.620230139223644
 20
259.26993579846413
 97
0
 97
0
 75
0
 76
1
 52
0.0
 41
0.5000000000000001
 77
0
 78
1
 53
0.0
 43
-2547.1613147426
 44
-262.6486975422
 45
0.1984375
 46
0.396875
 79
2
 49
0.0
 49
-0.396875
 47
0.0042562095306287
 98
1
 10
2.951603431360383
 20
1.607248614912361
1001
ACAD
1010
0.0
1020
0.0
1030
0.0
  0
HATCH
  5
5C
330
17
100
AcDbEntity
  8
加固措施
 62
7
370
-2
100
AcDbHatch
 10
0.0
 20
0.0
 30
0.0
210
0.0
220
0.0
230
1.0
  2
DOTS
 70
0
 71
0
 91
1
 92
5
 93
1
 72
4
 94
3
 73
0
 74
0
 95
13
 96
9
 40
0.0
 40
0.0
 40
0.0
 40
0.0
 40
5.205470949238192
 40
7.397577115618391
 40
12.94479593938928
 40
16.16992297717394
 40
23.88441044916003
 40
24.40043173154758
 40
24.40043173154758
 40
24.40043173154758
 40
24.40043173154758
 10
52.620230139223644
 20
259.26993579846413
 10
51.87647359184623
 20
258.75900618222505
 10
50.81950939625451
 20
258.0329160217746
 10
50.700556306955626
 20
255.3437339515488
 10
53.20052401212663
 20
256.5790241644011
 10
56.59441292002659
 20
255.6119114058759
 10
54.06792638752588
 20
259.3305384004537
 10
52.705640247165796
 20
259.2735111857649
 10
52.620230139223644
 20
259.26993579846413
 97
0
 97
0
 75
1
 76
1
 52
0.0
 41
0.5000000000000001
 77
0
 78
1
 53
0.0
 43
-1509.9045751446
 44
-114.7962191375
 45
0.1984375
 46
0.396875
 79
2
 49
0.0
 49
-0.396875
 47
0.0249828096589368
 98
1
 10
2.489201724020205
 20
1.709159144376837
1001
GradientColor1ACI
1070
5
1001
GradientColor2ACI
1070
2
1001
ACAD
1010
0.0
1020
0.0
1030
0.0
  0
SPLINE
  5
5D
330
17
100
AcDbEntity
  8
0
370
-2
100
AcDbSpline
 70
1065
 71
3
 72
13
 73
9
 74
7
 42
1e-09
 40
0.0
 40
0.0
 40
0.0
 40
0.0
 40
2.6027354746146
 40
3.698788557806291
 40
6.472397969687189
 40
8.084961488574518
 40
11.94220522456679
 40
12.2002158657583
 40
12.2002158657583
 40
12.2002158657583
 40
12.2002158657583
 10
52.620230139223644
 20
259.26993579846413
 30
0.0
 10
51.87647359185714
 20
258.75900618222687
 30
0.0
 10
50.81950939626906
 20
258.0329160217746
 30
0.0
 10
50.700556306959264
 20
255.34373395155336
 30
0.0
 10
53.200524012130266
 20
256.5790241644084
 30
0.0
 10
56.59441292002659
 20
255.6119114058759
 30
0.0
 10
54.06792638754043
 20
259.33053840045187
 30
0.0
 10
52.705640247169434
 20
259.2735111857622
 30
0.0
 10
52.620230139223644
 20
259.26993579846413
 30
0.0
 11
52.620230139223644
 21
259.26993579846413
 31
0.0
 11
50.87866169821566
 21
257.3357250250213
 31
0.0
 11
50.87866169821566
 21
256.2396719418296
 31
0.0
 11
53.65227111009656
 21
256.2396719418296
 31
0.0
 11
55.264834628983884
 21
256.2396719418296
 31
0.0
 11
52.87824078041515
 21
259.26993579846413
 31
0.0
 11
52.620230139223644
 21
259.26993579846413
 31
0.0
  0
HATCH
  5
5E
330
17
100
AcDbEntity
  8
病害
 62
4
370
-2
100
AcDbHatch
 10
0.0
 20
0.0
 30
0.0
210
0.0
220
0.0
230
1.0
  2
DOTS
 70
0
 71
0
 91
1
 92
5
 93
1
 72
4
 94
3
 73
0
 74
0
 95
13
 96
9
 40
0.0
 40
0.0
 40
0.0
 40
0.0
 40
1.041094189847545
 40
1.479515423123562
 40
2.588959187877695
 40
3.233984595434581
 40
4.776882089831686
 40
4.880086346309197
 40
4.880086346309197
 40
4.880086346309197
 40
4.880086346309197
 10
52.620230139223644
 20
259.26993579846413
 10
51.87647359184623
 20
258.75900618222505
 10
50.81950939625451
 20
258.0329160217746
 10
50.700556306955626
 20
255.3437339515488
 10
53.20052401212663
 20
256.5790241644102
 10
56.59441292002659
 20
255.6119114058759
 10
54.067926387533156
 20
259.3305384004537
 10
52.705640247165796
 20
259.2735111857649
 10
52.620230139223644
 20
259.26993579846413
 97
0
 97
0
 75
0
 76
1
 52
0.0
 41
0.5000000000000001
 77
0
 78
1
 53
0.0
 43
-2547.1613147426
 44
-262.6486975422
 45
0.1984375
 46
0.396875
 79
2
 49
0.0
 49
-0.396875
 47
0.0042562095306287
 98
1
 10
2.951603431360383
 20
1.607248614912361
1001
ACAD
1010
0.0
1020
0.0
1030
0.0
  0
HATCH
  5
5F
330
17
100
AcDbEntity
  8
加固措施
 62
7
370
-2
100
AcDbHatch
 10
0.0
 20
0.0
 30
0.0
210
0.0
220
0.0
230
1.0
  2
DOTS
 70
0
 71
0
 91
1
 92
5
 93
1
 72
4
 94
3
 73
0
 74
0
 95
13
 96
9
 40
0.0
 40
0.0
 40
0.0
 40
0.0
 40
5.205470949238192
 40
7.397577115618391
 40
12.94479593938928
 40
16.16992297717394
 40
23.88441044916003
 40
24.40043173154758
 40
24.40043173154758
 40
24.40043173154758
 40
24.40043173154758
 10
30.136925706926633
 20
262.574748658485
 10
29.393169159549217
 20
262.06381904224594
 10
28.3362049639575
 20
261.3377288817955
 10
28.217251874658615
 20
258.6485468115697
 10
30.717219579829617
 20
259.883837024422
 10
34.11110848772958
 20
258.9167242658968
 10
31.58462195522887
 20
262.6353512604746
 10
30.222335814868785
 20
262.5783240457858
 10
30.136925706926633
 20
262.574748658485
 97
0
 97
0
 75
1
 76
1
 52
0.0
 41
0.5000000000000001
 77
0
 78
1
 53
0.0
 43
-1509.9045751446
 44
-114.7962191375
 45
0.1984375
 46
0.396875
 79
2
 49
0.0
 49
-0.396875
 47
0.0249828096589368
 98
1
 10
2.489201724020205
 20
1.709159144376837
1001
GradientColor1ACI
1070
5
1001
GradientColor2ACI
1070
2
1001
ACAD
1010
0.0
1020
0.0
1030
0.0
  0
SPLINE
  5
60
330
17
100
AcDbEntity
  8
0
370
-2
100
AcDbSpline
 70
1065
 71
3
 72
13
 73
9
 74
7
 42
1e-09
 40
0.0
 40
0.0
 40
0.0
 40
0.0
 40
2.6027354746146
 40
3.698788557806291
 40
6.472397969687189
 40
8.084961488574518
 40
11.94220522456679
 40
12.2002158657583
 40
12.2002158657583
 40
12.2002158657583
 40
12.2002158657583
 10
30.136925706926633
 20
262.574748658485
 30
0.0
 10
29.39316915956013
 20
262.06381904224776
 30
0.0
 10
28.33620496397205
 20
261.3377288817955
 30
0.0
 10
28.217251874662253
 20
258.64854681157425
 30
0.0
 10
30.717219579833255
 20
259.8838370244293
 30
0.0
 10
34.11110848772958
 20
258.9167242658968
 30
0.0
 10
31.58462195524342
 20
262.63535126047276
 30
0.0
 10
30.222335814872423
 20
262.57832404578306
 30
0.0
 10
30.136925706926633
 20
262.574748658485
 30
0.0
 11
30.136925706926633
 21
262.574748658485
 31
0.0
 11
28.395357265918648
 21
260.6405378850422
 31
0.0
 11
28.395357265918648
 21
259.5444848018505
 31
0.0
 11
31.168966677799546
 21
259.5444848018505
 31
0.0
 11
32.78153019668687
 21
259.5444848018505
 31
0.0
 11
30.394936348118136
 21
262.574748658485
 31
0.0
 11
30.136925706926633
 21
262.574748658485
 31
0.0
  0
HATCH
  5
61
330
17
100
AcDbEntity
  8
病害
 62
4
370
-2
100
AcDbHatch
 10
0.0
 20
0.0
 30
0.0
210
0.0
220
0.0
230
1.0
  2
DOTS
 70
0
 71
0
 91
1
 92
5
 93
1
 72
4
 94
3
 73
0
 74
0
 95
13
 96
9
 40
0.0
 40
0.0
 40
0.0
 40
0.0
 40
1.041094189847545
 40
1.479515423123562
 40
2.588959187877695
 40
3.233984595434581
 40
4.776882089831686
 40
4.880086346309197
 40
4.880086346309197
 40
4.880086346309197
 40
4.880086346309197
 10
30.136925706926633
 20
262.574748658485
 10
29.393169159549217
 20
262.06381904224594
 10
28.3362049639575
 20
261.3377288817955
 10
28.217251874658615
 20
258.6485468115697
 10
30.717219579829617
 20
259.8838370244311
 10
34.11110848772958
 20
258.9167242658968
 10
31.584621955236145
 20
262.6353512604746
 10
30.222335814868785
 20
262.5783240457858
 10
30.136925706926633
 20
262.574748658485
 97
0
 97
0
 75
0
 76
1
 52
0.0
 41
0.5000000000000001
 77
0
 78
1
 53
0.0
 43
-2547.1613147426
 44
-262.6486975422
 45
0.1984375
 46
0.396875
 79
2
 49
0.0
 49
-0.396875
 47
0.0042562095306287
 98
1
 10
2.951603431360383
 20
1.607248614912361
1001
ACAD
1010
0.0
1020
0.0
1030
0.0
  0
HATCH
  5
62
330
17
100
AcDbEntity
  8
加固措施
 62
7
370
-2
100
AcDbHatch
 10
0.0
 20
0.0
 30
0.0
210
0.0
220
0.0
230
1.0
  2
DOTS
 70
0
 71
0
 91
1
 92
5
 93
1
 72
4
 94
3
 73
0
 74
0
 95
13
 96
9
 40
0.0
 40
0.0
 40
0.0
 40
0.0
 40
5.205470949238192
 40
7.397577115618391
 40
12.94479593938928
 40
16.16992297717394
 40
23.88441044916003
 40
24.40043173154758
 40
24.40043173154758
 40
24.40043173154758
 40
24.40043173154758
 10
30.136925706926633
 20
262.574748658485
 10
29.393169159549217
 20
262.06381904224594
 10
28.3362049639575
 20
261.3377288817955
 10
28.217251874658615
 20
258.6485468115697
 10
30.717219579829617
 20
259.883837024422
 10
34.11110848772958
 20
258.9167242658968
 10
31.58462195522887
 20
262.6353512604746
 10
30.222335814868785
 20
262.5783240457858
 10
30.136925706926633
 20
262.574748658485
 97
0
 97
0
 75
1
 76
1
 52
0.0
 41
0.5000000000000001
 77
0
 78
1
 53
0.0
 43
-1509.9045751446
 44
-114.7962191375
 45
0.1984375
 46
0.396875
 79
2
 49
0.0
 49
-0.396875
 47
0.0249828096589368
 98
1
 10
2.489201724020205
 20
1.709159144376837
1001
GradientColor1ACI
1070
5
1001
GradientColor2ACI
1070
2
1001
ACAD
1010
0.0
1020
0.0
1030
0.0
  0
SPLINE
  5
63
330
17
100
AcDbEntity
  8
0
370
-2
100
AcDbSpline
 70
1065
 71
3
 72
13
 73
9
 74
7
 42
1e-09
 40
0.0
 40
0.0
 40
0.0
 40
0.0
 40
2.6027354746146
 40
3.698788557806291
 40
6.472397969687189
 40
8.084961488574518
 40
11.94220522456679
 40
12.2002158657583
 40
12.2002158657583
 40
12.2002158657583
 40
12.2002158657583
 10
30.136925706926633
 20
262.574748658485
 30
0.0
 10
29.39316915956013
 20
262.06381904224776
 30
0.0
 10
28.33620496397205
 20
261.3377288817955
 30
0.0
 10
28.217251874662253
 20
258.64854681157425
 30
0.0
 10
30.717219579833255
 20
259.8838370244293
 30
0.0
 10
34.11110848772958
 20
258.9167242658968
 30
0.0
 10
31.58462195524342
 20
262.63535126047276
 30
0.0
 10
30.222335814872423
 20
262.57832404578306
 30
0.0
 10
30.136925706926633
 20
262.574748658485
 30
0.0
 11
30.136925706926633
 21
262.574748658485
 31
0.0
 11
28.395357265918648
 21
260.6405378850422
 31
0.0
 11
28.395357265918648
 21
259.5444848018505
 31
0.0
 11
31.168966677799546
 21
259.5444848018505
 31
0.0
 11
32.78153019668687
 21
259.5444848018505
 31
0.0
 11
30.394936348118136
 21
262.574748658485
 31
0.0
 11
30.136925706926633
 21
262.574748658485
 31
0.0
  0
HATCH
  5
64
330
17
100
AcDbEntity
  8
病害
 62
4
370
-2
100
AcDbHatch
 10
0.0
 20
0.0
 30
0.0
210
0.0
220
0.0
230
1.0
  2
DOTS
 70
0
 71
0
 91
1
 92
5
 93
1
 72
4
 94
3
 73
0
 74
0
 95
13
 96
9
 40
0.0
 40
0.0
 40
0.0
 40
0.0
 40
1.041094189847545
 40
1.479515423123562
 40
2.588959187877695
 40
3.233984595434581
 40
4.776882089831686
 40
4.880086346309197
 40
4.880086346309197
 40
4.880086346309197
 40
4.880086346309197
 10
30.136925706926633
 20
262.574748658485
 10
29.393169159549217
 20
262.06381904224594
 10
28.3362049639575
 20
261.3377288817955
 10
28.217251874658615
 20
258.6485468115697
 10
30.717219579829617
 20
259.8838370244311
 10
34.11110848772958
 20
258.9167242658968
 10
31.584621955236145
 20
262.6353512604746
 10
30.222335814868785
 20
262.5783240457858
 10
30.136925706926633
 20
262.574748658485
 97
0
 97
0
 75
0
 76
1
 52
0.0
 41
0.5000000000000001
 77
0
 78
1
 53
0.0
 43
-2547.1613147426
 44
-262.6486975422
 45
0.1984375
 46
0.396875
 79
2
 49
0.0
 49
-0.396875
 47
0.0042562095306287
 98
1
 10
2.951603431360383
 20
1.607248614912361
1001
ACAD
1010
0.0
1020
0.0
1030
0.0
  0
HATCH
  5
65
330
17
100
AcDbEntity
  8
加固措施
 62
7
370
-2
100
AcDbHatch
 10
0.0
 20
0.0
 30
0.0
210
0.0
220
0.0
230
1.0
  2
DOTS
 70
0
 71
0
 91
1
 92
5
 93
1
 72
4
 94
3
 73
0
 74
0
 95
13
 96
9
 40
0.0
 40
0.0
 40
0.0
 40
0.0
 40
5.205470949238192
 40
7.397577115618391
 40
12.94479593938928
 40
16.16992297717394
 40
23.88441044916003
 40
24.40043173154758
 40
24.40043173154758
 40
24.40043173154758
 40
24.40043173154758
 10
52.620230139223644
 20
262.574748658485
 10
51.87647359184623
 20
262.06381904224594
 10
50.81950939625451
 20
261.3377288817955
 10
50.700556306955626
 20
258.6485468115697
 10
53.20052401212663
 20
259.883837024422
 10
56.59441292002659
 20
258.9167242658968
 10
54.06792638752588
 20
262.6353512604746
 10
52.705640247165796
 20
262.5783240457858
 10
52.620230139223644
 20
262.574748658485
 97
0
 97
0
 75
1
 76
1
 52
0.0
 41
0.5000000000000001
 77
0
 78
1
 53
0.0
 43
-1509.9045751446
 44
-114.7962191375
 45
0.1984375
 46
0.396875
 79
2
 49
0.0
 49
-0.396875
 47
0.0249828096589368
 98
1
 10
2.489201724020205
 20
1.709159144376837
1001
GradientColor1ACI
1070
5
1001
GradientColor2ACI
1070
2
1001
ACAD
1010
0.0
1020
0.0
1030
0.0
  0
SPLINE
  5
66
330
17
100
AcDbEntity
  8
0
370
-2
100
AcDbSpline
 70
1065
 71
3
 72
13
 73
9
 74
7
 42
1e-09
 40
0.0
 40
0.0
 40
0.0
 40
0.0
 40
2.6027354746146
 40
3.698788557806291
 40
6.472397969687189
 40
8.084961488574518
 40
11.94220522456679
 40
12.2002158657583
 40
12.2002158657583
 40
12.2002158657583
 40
12.2002158657583
 10
52.620230139223644
 20
262.574748658485
 30
0.0
 10
51.87647359185714
 20
262.06381904224776
 30
0.0
 10
50.81950939626906
 20
261.3377288817955
 30
0.0
 10
50.700556306959264
 20
258.64854681157425
 30
0.0
 10
53.200524012130266
 20
259.8838370244293
 30
0.0
 10
56.59441292002659
 20
258.9167242658968
 30
0.0
 10
54.06792638754043
 20
262.63535126047276
 30
0.0
 10
52.705640247169434
 20
262.57832404578306
 30
0.0
 10
52.620230139223644
 20
262.574748658485
 30
0.0
 11
52.620230139223644
 21
262.574748658485
 31
0.0
 11
50.87866169821566
 21
260.6405378850422
 31
0.0
 11
50.87866169821566
 21
259.5444848018505
 31
0.0
 11
53.65227111009656
 21
259.5444848018505
 31
0.0
 11
55.264834628983884
 21
259.5444848018505
 31
0.0
 11
52.87824078041515
 21
262.574748658485
 31
0.0
 11
52.620230139223644
 21
262.574748658485
 31
0.0
  0
HATCH
  5
67
330
17
100
AcDbEntity
  8
病害
 62
4
370
-2
100
AcDbHatch
 10
0.0
 20
0.0
 30
0.0
210
0.0
220
0.0
230
1.0
  2
DOTS
 70
0
 71
0
 91
1
 92
5
 93
1
 72
4
 94
3
 73
0
 74
0
 95
13
 96
9
 40
0.0
 40
0.0
 40
0.0
 40
0.0
 40
1.041094189847545
 40
1.479515423123562
 40
2.588959187877695
 40
3.233984595434581
 40
4.776882089831686
 40
4.880086346309197
 40
4.880086346309197
 40
4.880086346309197
 40
4.880086346309197
 10
52.620230139223644
 20
262.574748658485
 10
51.87647359184623
 20
262.06381904224594
 10
50.81950939625451
 20
261.3377288817955
 10
50.700556306955626
 20
258.6485468115697
 10
53.20052401212663
 20
259.8838370244311
 10
56.59441292002659
 20
258.9167242658968
 10
54.067926387533156
 20
262.6353512604746
 10
52.705640247165796
 20
262.5783240457858
 10
52.620230139223644
 20
262.574748658485
 97
0
 97
0
 75
0
 76
1
 52
0.0
 41
0.5000000000000001
 77
0
 78
1
 53
0.0
 43
-2547.1613147426
 44
-262.6486975422
 45
0.1984375
 46
0.396875
 79
2
 49
0.0
 49
-0.396875
 47
0.0042562095306287
 98
1
 10
2.951603431360383
 20
1.607248614912361
1001
ACAD
1010
0.0
1020
0.0
1030
0.0
  0
HATCH
  5
68
330
17
100
AcDbEntity
  8
加固措施
 62
7
370
-2
100
AcDbHatch
 10
0.0
 20
0.0
 30
0.0
210
0.0
220
0.0
230
1.0
  2
DOTS
 70
0
 71
0
 91
1
 92
5
 93
1
 72
4
 94
3
 73
0
 74
0
 95
13
 96
9
 40
0.0
 40
0.0
 40
0.0
 40
0.0
 40
5.205470949238192
 40
7.397577115618391
 40
12.94479593938928
 40
16.16992297717394
 40
23.88441044916003
 40
24.40043173154758
 40
24.40043173154758
 40
24.40043173154758
 40
24.40043173154758
 10
52.620230139223644
 20
262.574748658485
 10
51.87647359184623
 20
262.06381904224594
 10
50.81950939625451
 20
261.3377288817955
 10
50.700556306955626
 20
258.6485468115697
 10
53.20052401212663
 20
259.883837024422
 10
56.59441292002659
 20
258.9167242658968
 10
54.06792638752588
 20
262.6353512604746
 10
52.705640247165796
 20
262.5783240457858
 10
52.620230139223644
 20
262.574748658485
 97
0
 97
0
 75
1
 76
1
 52
0.0
 41
0.5000000000000001
 77
0
 78
1
 53
0.0
 43
-1509.9045751446
 44
-114.7962191375
 45
0.1984375
 46
0.396875
 79
2
 49
0.0
 49
-0.396875
 47
0.0249828096589368
 98
1
 10
2.489201724020205
 20
1.709159144376837
1001
GradientColor1ACI
1070
5
1001
GradientColor2ACI
1070
2
1001
ACAD
1010
0.0
1020
0.0
1030
0.0
  0
SPLINE
  5
69
330
17
100
AcDbEntity
  8
0
370
-2
100
AcDbSpline
 70
1065
 71
3
 72
13
 73
9
 74
7
 42
1e-09
 40
0.0
 40
0.0
 40
0.0
 40
0.0
 40
2.6027354746146
 40
3.698788557806291
 40
6.472397969687189
 40
8.084961488574518
 40
11.94220522456679
 40
12.2002158657583
 40
12.2002158657583
 40
12.2002158657583
 40
12.2002158657583
 10
52.620230139223644
 20
262.574748658485
 30
0.0
 10
51.87647359185714
 20
262.06381904224776
 30
0.0
 10
50.81950939626906
 20
261.3377288817955
 30
0.0
 10
50.700556306959264
 20
258.64854681157425
 30
0.0
 10
53.200524012130266
 20
259.8838370244293
 30
0.0
 10
56.59441292002659
 20
258.9167242658968
 30
0.0
 10
54.06792638754043
 20
262.63535126047276
 30
0.0
 10
52.705640247169434
 20
262.57832404578306
 30
0.0
 10
52.620230139223644
 20
262.574748658485
 30
0.0
 11
52.620230139223644
 21
262.574748658485
 31
0.0
 11
50.87866169821566
 21
260.6405378850422
 31
0.0
 11
50.87866169821566
 21
259.5444848018505
 31
0.0
 11
53.65227111009656
 21
259.5444848018505
 31
0.0
 11
55.264834628983884
 21
259.5444848018505
 31
0.0
 11
52.87824078041515
 21
262.574748658485
 31
0.0
 11
52.620230139223644
 21
262.574748658485
 31
0.0
  0
HATCH
  5
6A
330
17
100
AcDbEntity
  8
病害
 62
4
370
-2
100
AcDbHatch
 10
0.0
 20
0.0
 30
0.0
210
0.0
220
0.0
230
1.0
  2
DOTS
 70
0
 71
0
 91
1
 92
5
 93
1
 72
4
 94
3
 73
0
 74
0
 95
13
 96
9
 40
0.0
 40
0.0
 40
0.0
 40
0.0
 40
1.041094189847545
 40
1.479515423123562
 40
2.588959187877695
 40
3.233984595434581
 40
4.776882089831686
 40
4.880086346309197
 40
4.880086346309197
 40
4.880086346309197
 40
4.880086346309197
 10
52.620230139223644
 20
262.574748658485
 10
51.87647359184623
 20
262.06381904224594
 10
50.81950939625451
 20
261.3377288817955
 10
50.700556306955626
 20
258.6485468115697
 10
53.20052401212663
 20
259.8838370244311
 10
56.59441292002659
 20
258.9167242658968
 10
54.067926387533156
 20
262.6353512604746
 10
52.705640247165796
 20
262.5783240457858
 10
52.620230139223644
 20
262.574748658485
 97
0
 97
0
 75
0
 76
1
 52
0.0
 41
0.5000000000000001
 77
0
 78
1
 53
0.0
 43
-2547.1613147426
 44
-262.6486975422
 45
0.1984375
 46
0.396875
 79
2
 49
0.0
 49
-0.396875
 47
0.0042562095306287
 98
1
 10
2.951603431360383
 20
1.607248614912361
1001
ACAD
1010
0.0
1020
0.0
1030
0.0
  0
ENDSEC
  0
SECTION
  2
OBJECTS
  0
DICTIONARY
  5
A
330
0
100
AcDbDictionary
281
1
  3
ACAD_COLOR
350
B
  3
ACAD_GROUP
350
C
  3
ACAD_LAYOUT
350
D
  3
ACAD_MATERIAL
350
E
  3
ACAD_MLEADERSTYLE
350
F
  3
ACAD_MLINESTYLE
350
10
  3
ACAD_PLOTSETTINGS
350
11
  3
ACAD_PLOTSTYLENAME
350
12
  3
ACAD_SCALELIST
350
14
  3
ACAD_TABLESTYLE
350
15
  3
ACAD_VISUALSTYLE
350
16
  3
EZDXF_META
350
2D
  0
DICTIONARY
  5
B
330
A
100
AcDbDictionary
281
1
  0
DICTIONARY
  5
C
330
A
100
AcDbDictionary
281
1
  0
DICTIONARY
  5
D
330
A
100
AcDbDictionary
281
1
  3
Model
350
1A
  3
Layout1
350
1E
  0
DICTIONARY
  5
E
330
A
100
AcDbDictionary
281
1
  3
ByBlock
350
1F
  3
ByLayer
350
20
  3
Global
350
21
  0
DICTIONARY
  5
F
330
A
100
AcDbDictionary
281
1
  3
Standard
350
2C
  0
DICTIONARY
  5
10
330
A
100
AcDbDictionary
281
1
  3
Standard
350
22
  0
DICTIONARY
  5
11
330
A
100
AcDbDictionary
281
1
  0
ACDBDICTIONARYWDFLT
  5
12
330
A
100
AcDbDictionary
281
1
  3
Normal
350
13
100
AcDbDictionaryWithDefault
340
13
  0
ACDBPLACEHOLDER
  5
13
330
12
  0
DICTIONARY
  5
14
330
A
100
AcDbDictionary
281
1
  0
DICTIONARY
  5
15
330
A
100
AcDbDictionary
281
1
  0
DICTIONARY
  5
16
330
A
100
AcDbDictionary
281
1
  0
LAYOUT
  5
1A
330
D
100
AcDbPlotSettings
  1

  4
A3
  6

 40
7.5
 41
20.0
 42
7.5
 43
20.0
 44
420.0
 45
297.0
 46
0.0
 47
0.0
 48
0.0
 49
0.0
140
0.0
141
0.0
142
1.0
143
1.0
 70
1024
 72
1
 73
0
 74
5
  7

 75
16
 76
0
 77
2
 78
300
147
1.0
148
0.0
149
0.0
100
AcDbLayout
  1
Model
 70
1
 71
0
 10
0.0
 20
0.0
 11
420.0
 21
297.0
 12
0.0
 22
0.0
 32
0.0
 14
1e+20
 24
1e+20
 34
1e+20
 15
-1e+20
 25
-1e+20
 35
-1e+20
146
0.0
 13
0.0
 23
0.0
 33
0.0
 16
1.0
 26
0.0
 36
0.0
 17
0.0
 27
1.0
 37
0.0
 76
1
330
17
  0
LAYOUT
  5
1E
330
D
100
AcDbPlotSettings
  1

  4
A3
  6

 40
7.5
 41
20.0
 42
7.5
 43
20.0
 44
420.0
 45
297.0
 46
0.0
 47
0.0
 48
0.0
 49
0.0
140
0.0
141
0.0
142
1.0
143
1.0
 70
0
 72
1
 73
0
 74
5
  7

 75
16
 76
0
 77
2
 78
300
147
1.0
148
0.0
149
0.0
100
AcDbLayout
  1
Layout1
 70
1
 71
1
 10
0.0
 20
0.0
 11
420.0
 21
297.0
 12
0.0
 22
0.0
 32
0.0
 14
1e+20
 24
1e+20
 34
1e+20
 15
-1e+20
 25
-1e+20
 35
-1e+20
146
0.0
 13
0.0
 23
0.0
 33
0.0
 16
1.0
 26
0.0
 36
0.0
 17
0.0
 27
1.0
 37
0.0
 76
1
330
1B
  0
MATERIAL
  5
1F
102
{ACAD_REACTORS
330
E
102
}
330
E
100
AcDbMaterial
  1
ByBlock
  2

 70
0
 40
1.0
 71
1
 41
1.0
 91
-1023410177
 42
1.0
 72
1
  3

 73
1
 74
1
 75
1
 44
0.5
 73
0
 45
1.0
 46
1.0
 77
1
  4

 78
1
 79
1
170
1
 48
1.0
171
1
  6

172
1
173
1
174
1
140
1.0
141
1.0
175
1
  7

176
1
177
1
178
1
143
1.0
179
1
  8

270
1
271
1
272
1
145
1.0
146
1.0
273
1
  9

274
1
275
1
276
1
 42
1.0
 72
1
  3

 73
1
 74
1
 75
1
 94
63
  0
MATERIAL
  5
20
102
{ACAD_REACTORS
330
E
102
}
330
E
100
AcDbMaterial
  1
ByLayer
  2

 70
0
 40
1.0
 71
1
 41
1.0
 91
-1023410177
 42
1.0
 72
1
  3

 73
1
 74
1
 75
1
 44
0.5
 73
0
 45
1.0
 46
1.0
 77
1
  4

 78
1
 79
1
170
1
 48
1.0
171
1
  6

172
1
173
1
174
1
140
1.0
141
1.0
175
1
  7

176
1
177
1
178
1
143
1.0
179
1
  8

270
1
271
1
272
1
145
1.0
146
1.0
273
1
  9

274
1
275
1
276
1
 42
1.0
 72
1
  3

 73
1
 74
1
 75
1
 94
63
  0
MATERIAL
  5
21
102
{ACAD_REACTORS
330
E
102
}
330
E
100
AcDbMaterial
  1
Global
  2

 70
0
 40
1.0
 71
1
 41
1.0
 91
-1023410177
 42
1.0
 72
1
  3

 73
1
 74
1
 75
1
 44
0.5
 73
0
 45
1.0
 46
1.0
 77
1
  4

 78
1
 79
1
170
1
 48
1.0
171
1
  6

172
1
173
1
174
1
140
1.0
141
1.0
175
1
  7

176
1
177
1
178
1
143
1.0
179
1
  8

270
1
271
1
272
1
145
1.0
146
1.0
273
1
  9

274
1
275
1
276
1
 42
1.0
 72
1
  3

 73
1
 74
1
 75
1
 94
63
  0
MLINESTYLE
  5
22
102
{ACAD_REACTORS
330
10
102
}
330
10
100
AcDbMlineStyle
  2
Standard
 70
0
  3

 62
256
 51
90.0
 52
90.0
 71
2
 49
0.5
 62
256
  6
BYLAYER
 49
-0.5
 62
256
  6
BYLAYER
  0
MLEADERSTYLE
  5
2C
102
{ACAD_REACTORS
330
F
102
}
330
F
100
AcDbMLeaderStyle
179
2
170
2
171
1
172
0
 90
2
 40
0.0
 41
0.0
173
1
 91
-1056964608
 92
-2
290
1
 42
2.0
291
1
 43
8.0
  3
Standard
 44
4.0
300

342
29
174
1
175
1
176
0
178
1
 93
-1056964608
 45
4.0
292
0
297
0
 46
4.0
 94
-1056964608
 47
1.0
 49
1.0
140
1.0
294
1
141
0.0
177
0
142
1.0
295
0
296
0
143
3.75
271
0
272
9
273
9
  0
DICTIONARY
  5
2D
330
A
100
AcDbDictionary
280
1
281
1
  3
CREATED_BY_EZDXF
350
2E
  3
WRITTEN_BY_EZDXF
350
6D
  0
DICTIONARYVAR
  5
2E
330
2D
100
DictionaryVariables
280
0
  1
1.4.3 @ 2026-03-22T12:51:54.954535+00:00
  0
DICTIONARYVAR
  5
6D
330
2D
100
DictionaryVariables
280
0
  1
1.4.3 @ 2026-03-22T12:51:55.557578+00:00
  0
ENDSEC
  0
EOF
